<svg width="100pt" height="100pt" version="1.1" viewBox="0 0 100 100"
  xmlns="http://www.w3.org/2000/svg">
  <path
    d="m81.008 80.824c8.1602-8.1836 12.742-19.27 12.742-30.824s-4.582-22.641-12.742-30.824c-0.03125-0.035156-0.039062-0.078125-0.074218-0.10938s-0.074219-0.042968-0.10938-0.074218c-8.1836-8.1602-19.27-12.742-30.824-12.742s-22.641 4.582-30.824 12.742c-0.035156 0.03125-0.078125 0.039062-0.10938 0.074218s-0.042968 0.074219-0.074218 0.10938c-8.1602 8.1836-12.742 19.27-12.742 30.824s4.582 22.641 12.742 30.824c0.03125 0.035156 0.039062 0.078125 0.074218 0.10938s0.074219 0.042968 0.10938 0.074218c8.1836 8.1602 19.27 12.742 30.824 12.742s22.641-4.582 30.824-12.742c0.035156-0.03125 0.078125-0.039062 0.10938-0.074218s0.042968-0.074219 0.074218-0.10938zm-4.4922-8.7266c-0.58203-0.60547-1.3828-0.94922-2.2188-0.95312-0.83984-0.007812-1.6445 0.32031-2.2383 0.91406s-0.92188 1.3984-0.91406 2.2383c0.003907 0.83594 0.34766 1.6367 0.95312 2.2188l2.0938 2.0938c-5.9414 5.0391-13.305 8.0898-21.066 8.7305v-2.9648c0-1.7266-1.3984-3.125-3.125-3.125s-3.125 1.3984-3.125 3.125v2.9648c-7.7617-0.64062-15.125-3.6914-21.066-8.7305l2.0938-2.0938c0.60547-0.58203 0.94922-1.3828 0.95312-2.2188 0.007812-0.83984-0.32031-1.6445-0.91406-2.2383s-1.3984-0.92188-2.2383-0.91406c-0.83594 0.003907-1.6367 0.34766-2.2188 0.95312l-2.0938 2.0938c-5.0391-5.9414-8.0898-13.305-8.7305-21.066h2.9648c1.7266 0 3.125-1.3984 3.125-3.125s-1.3984-3.125-3.125-3.125h-2.9648c0.64062-7.7617 3.6914-15.125 8.7305-21.066l2.0938 2.0938c1.2266 1.1836 3.1758 1.168 4.3789-0.039063 1.207-1.2031 1.2227-3.1523 0.039063-4.3789l-2.0938-2.0938c5.9414-5.0391 13.305-8.0898 21.066-8.7305v2.9648c0 1.7266 1.3984 3.125 3.125 3.125s3.125-1.3984 3.125-3.125v-2.9648c7.7617 0.64062 15.125 3.6914 21.066 8.7305l-2.0938 2.0938c-0.60547 0.58203-0.94922 1.3828-0.95312 2.2188-0.007812 0.83984 0.32031 1.6445 0.91406 2.2383s1.3984 0.92188 2.2383 0.91406c0.83594-0.003907 1.6367-0.34766 2.2188-0.95312l2.0938-2.0938c5.0391 5.9414 8.0898 13.305 8.7305 21.066h-2.9648c-1.7266 0-3.125 1.3984-3.125 3.125s1.3984 3.125 3.125 3.125h2.9648c-0.64062 7.7617-3.6914 15.125-8.7305 21.066zm-11.805-11.805v-0.003907c0.60156 0.58203 0.94531 1.3828 0.95312 2.2227 0.007813 0.83594-0.32422 1.6445-0.91406 2.2383-0.59375 0.58984-1.4023 0.92188-2.2383 0.91406-0.83984-0.007812-1.6406-0.35156-2.2227-0.95312l-10.668-10.668v-0.003907c-1.7656-1.7539-2.7539-4.1406-2.7461-6.6289v-19.285c0-1.7266 1.3984-3.125 3.125-3.125s3.125 1.3984 3.125 3.125v19.285c0 0.82812 0.32812 1.625 0.91406 2.2109z"></path>
</svg>