<svg width="100pt" height="100pt" version="1.1" viewBox="0 0 100 100" xmlns="http://www.w3.org/2000/svg"> <g> <path d="m74.902 55.477v-7.2578c0-0.50781-0.27344-1.0156-0.72266-1.2695-5.3203-2.9375-11.164-4.7969-17.195-5.4766-5.8789-0.66406-11.914-0.13672-17.609 1.5039-3.3125 0.95703-6.5039 2.3047-9.5234 3.9648-0.44922 0.24219-0.72266 0.76172-0.72266 1.2695v7.2578c0.73438-0.42188 1.4648-0.83984 2.207-1.2695-1.8438-0.94531-3.7031-1.8945-5.5469-2.832-2.9609-1.5156-5.9297-3.0273-8.8867-4.5391-0.67188-0.34375-1.3477-0.69531-2.0312-1.0352v2.5312c1.2578-0.64453 2.5195-1.2891 3.7891-1.9336 3.0156-1.543 6.0234-3.0859 9.043-4.6172 3.6406-1.8672 7.2852-3.7305 10.938-5.5859 3.1523-1.6094 6.2969-3.2227 9.4531-4.8359 1.5234-0.78125 3.1172-1.4922 4.6094-2.3516 0.019531-0.007812 0.046875-0.019531 0.070313-0.039062h-1.4766c1.2578 0.64453 2.5195 1.2891 3.7891 1.9336 3.0156 1.543 6.0234 3.0859 9.043 4.6172 3.6406 1.8672 7.2852 3.7305 10.938 5.5859 3.1523 1.6094 6.2969 3.2227 9.4531 4.8359 1.5234 0.78125 3.0391 1.6602 4.6094 2.3516 0.019532 0.007813 0.046875 0.019532 0.070313 0.039063v-2.5312c-1.8438 0.94531-3.7031 1.8945-5.5469 2.832-2.9609 1.5156-5.9297 3.0273-8.8867 4.5391-0.67188 0.34375-1.3477 0.69531-2.0312 1.0352-0.70312 0.35938-0.91016 1.3477-0.52734 2 0.42188 0.71094 1.2969 0.89062 2 0.52734 1.8438-0.94531 3.7031-1.8945 5.5469-2.832 2.9609-1.5156 5.9297-3.0273 8.8867-4.5391 0.67188-0.34375 1.3477-0.69531 2.0312-1.0352 0.95703-0.48828 0.95703-2.0391 0-2.5312-1.2578-0.64453-2.5195-1.2891-3.7891-1.9336-3.0273-1.5547-6.0547-3.0938-9.082-4.6484-3.6719-1.875-7.3438-3.7578-11.016-5.6328-3.1445-1.6094-6.2969-3.2227-9.4453-4.8242-1.5039-0.77344-2.9883-1.5742-4.5-2.3047-0.82812-0.39844-1.3867-0.097656-2.0703 0.25391-0.78125 0.39844-1.5547 0.78906-2.3359 1.1914-2.8516 1.4531-5.7109 2.9219-8.5625 4.375-3.6406 1.8672-7.2734 3.7188-10.918 5.5859-3.3008 1.6875-6.6016 3.3672-9.9023 5.0586-1.7969 0.91797-3.5859 1.8359-5.3828 2.7539-0.078125 0.039063-0.16406 0.085938-0.24219 0.125-0.95703 0.48828-0.95703 2.0391 0 2.5312 1.8438 0.94531 3.7031 1.8945 5.5469 2.832 2.9609 1.5156 5.9297 3.0273 8.8867 4.5391 0.67188 0.34375 1.3477 0.69531 2.0312 1.0352 0.97656 0.49609 2.207-0.10937 2.207-1.2695v-7.2578c-0.24219 0.42188-0.48828 0.83984-0.72266 1.2695 9.9141-5.4766 21.699-6.8047 32.547-3.6719 3.125 0.89844 5.9766 2.1016 8.8203 3.6719-0.24219-0.42188-0.48828-0.83984-0.72266-1.2695v7.2578c0 0.76172 0.67188 1.5039 1.4648 1.4648 0.74219-0.015625 1.418-0.625 1.418-1.4453z"></path> <path d="m71.973 48.223v6.6406 10.645 2.4297c0.48828-0.48828 0.97656-0.97656 1.4648-1.4648h-4.2891-10.188-12.414-10.695c-1.7266 0-3.4766-0.097656-5.2031 0h-0.078126l1.4648 1.4648v-6.6406-10.645-2.4297c-0.24219 0.42188-0.48828 0.83984-0.72266 1.2695 9.9141-5.4766 21.699-6.8047 32.547-3.6719 3.125 0.89844 5.9766 2.1016 8.8203 3.6719 0.69531 0.38281 1.6016 0.16406 2-0.52734 0.39062-0.67188 0.16406-1.6211-0.52734-2-5.3203-2.9375-11.164-4.7969-17.195-5.4766-5.8789-0.66406-11.914-0.13672-17.609 1.5039-3.3125 0.95703-6.5039 2.3047-9.5234 3.9648-0.44922 0.24219-0.72266 0.76172-0.72266 1.2695v6.6406 10.645 2.4297c0 0.78906 0.67188 1.4648 1.4648 1.4648h4.2891 10.188 12.414 10.695c1.7266 0 3.4688 0.046875 5.2031 0h0.078125c0.78906 0 1.4648-0.67188 1.4648-1.4648v-6.6406-10.645-2.4297c0-0.76172-0.67188-1.5039-1.4648-1.4648-0.78516 0.035156-1.4609 0.64062-1.4609 1.4609z"></path> <path d="m12.715 59.219c-1.1797 3.7109-2.3516 7.4219-3.5352 11.133-0.16406 0.52734-0.33203 1.0469-0.49609 1.5742-0.29297 0.91797 0.48828 1.8555 1.4141 1.8555h8.0664c0.91797 0 1.6992-0.9375 1.4141-1.8555-1.1797-3.7109-2.3516-7.4219-3.5352-11.133-0.16406-0.52734-0.33203-1.0469-0.49609-1.5742-0.24219-0.75-1.0156-1.2422-1.8047-1.0234-0.74219 0.20313-1.2578 1.0469-1.0234 1.8047 1.1797 3.7109 2.3516 7.4219 3.5352 11.133 0.16406 0.52734 0.33203 1.0469 0.49609 1.5742 0.46875-0.61719 0.9375-1.2422 1.4141-1.8555h-8.0664c0.46875 0.61719 0.9375 1.2422 1.4141 1.8555 1.1797-3.7109 2.3516-7.4219 3.5352-11.133 0.16406-0.52734 0.33203-1.0469 0.49609-1.5742 0.23438-0.73438-0.27344-1.6328-1.0234-1.8047-0.80078-0.17969-1.5508 0.24219-1.80471.0234z"></path> <path d="m12.664 47.062v10.996 1.5625c0 0.76172 0.67188 1.5039 1.4648 1.4648 0.78906-0.039063 1.4648-0.64453 1.4648-1.4648v-10.996-1.5625c0-0.76172-0.67188-1.5039-1.4648-1.4648-0.80078 0.027344-1.4648 0.64453-1.4648 1.4648z"></path> </g> </svg>