<svg width="100pt" height="100pt" version="1.1" viewBox="0 0 100 100" xmlns="http://www.w3.org/2000/svg"> <g> <path d="m76.367 55.477v-7.2578c0-1.0156-0.55469-2.0312-1.4531-2.5312-5.5664-3.0781-11.633-4.9609-17.938-5.6719-5.9961-0.68359-12.195-0.11719-17.988 1.5625-3.4297 0.98438-6.7461 2.3906-9.875 4.1094-0.89844 0.49609-1.4531 1.5156-1.4531 2.5312v7.2578c1.4648-0.83984 2.9375-1.6875 4.4062-2.5312-1.8438-0.94531-3.7031-1.8945-5.5469-2.832-2.9609-1.5156-5.9297-3.0273-8.8867-4.5391-0.67187-0.34375-1.3477-0.69531-2.0312-1.0352v5.0586c1.2578-0.64453 2.5195-1.2891 3.7891-1.9336 3.0156-1.543 6.0234-3.0859 9.043-4.6172 3.6406-1.8672 7.2852-3.7305 10.938-5.5859 3.1523-1.6094 6.2969-3.2227 9.4531-4.8359 1.5312-0.78125 3.0938-1.5312 4.6094-2.3516 0.019531-0.007813 0.046875-0.019532 0.070312-0.039063h-2.9609c1.2578 0.64453 2.5195 1.2891 3.7891 1.9336 3.0156 1.543 6.0234 3.0859 9.043 4.6172 3.6406 1.8672 7.2852 3.7305 10.938 5.5859 3.1523 1.6094 6.2969 3.2227 9.4531 4.8359 1.5312 0.78125 3.0469 1.6094 4.6094 2.3516 0.019531 0.007812 0.046875 0.019531 0.070312 0.039062v-5.0586c-1.8438 0.94531-3.7031 1.8945-5.5469 2.832-2.9609 1.5156-5.9297 3.0273-8.8867 4.5391-0.67188 0.34375-1.3477 0.69531-2.0312 1.0352-1.3672 0.70313-1.875 2.7344-1.0547 4.0039 0.89844 1.3984 2.5469 1.7969 4.0039 1.0547 1.8438-0.94531 3.7031-1.8945 5.5469-2.832 2.9609-1.5156 5.9297-3.0273 8.8867-4.5391 0.67188-0.34375 1.3477-0.69531 2.0312-1.0352 1.9141-0.97656 1.9141-4.082 0-5.0586-1.2578-0.64453-2.5195-1.2891-3.7891-1.9336-3.0273-1.5547-6.0547-3.0938-9.082-4.6484-3.6719-1.875-7.3438-3.7578-11.016-5.6328-3.1445-1.6094-6.2969-3.2227-9.4453-4.8242-1.5039-0.77344-2.9883-1.5625-4.5-2.3047-1.0469-0.50781-2.0234-0.50781-3.0547 0-0.16406 0.078126-0.33203 0.16406-0.48828 0.25391-0.78125 0.39844-1.5547 0.78906-2.3359 1.1914-2.8516 1.4531-5.7109 2.9219-8.5625 4.375-3.6406 1.8672-7.2734 3.7188-10.918 5.5859-3.3008 1.6875-6.6016 3.3672-9.9023 5.0586-1.7969 0.91797-3.5859 1.8359-5.3828 2.7539-0.078125 0.039063-0.16406 0.085938-0.24219 0.125-1.9141 0.97656-1.9141 4.082 0 5.0586 1.8438 0.94531 3.7031 1.8945 5.5469 2.832 2.9609 1.5156 5.9297 3.0273 8.8867 4.5391 0.67188 0.34375 1.3477 0.69531 2.0312 1.0352 0.94531 0.48828 2.0117 0.55469 2.9609 0 0.89063-0.51562 1.4531-1.4922 1.4531-2.5312v-7.2578c-0.48828 0.83984-0.96875 1.6875-1.4531 2.5312 1.4062-0.78125 2.8516-1.4844 4.3359-2.1094-0.23438 0.097656-0.46875 0.19531-0.70312 0.29297 3.5742-1.4922 7.332-2.5195 11.172-3.0469-0.26562 0.039063-0.51562 0.070313-0.78125 0.10938 3.9258-0.52734 7.9023-0.52734 11.828 0-0.26562-0.039063-0.51562-0.070313-0.78125-0.10938 3.8359 0.52734 7.5977 1.5547 11.172 3.0469-0.23438-0.097657-0.46875-0.19531-0.70312-0.29297 1.4844 0.625 2.9297 1.3281 4.3359 2.1094-0.48828-0.83984-0.96875-1.6875-1.4531-2.5312v7.2578c0 1.5312 1.3477 3 2.9297 2.9297 1.5781-0.074219 2.9141-1.2852 2.9141-2.9258z"></path> <path d="m70.508 48.223v6.6406 10.645 2.4297c0.97656-0.97656 1.9531-1.9531 2.9297-2.9297h-4.2891-10.188-12.414-10.695c-1.7266 0-3.4688-0.046874-5.2031 0h-0.078126l2.9297 2.9297v-6.6406-10.645-2.4297c-0.48828 0.83984-0.96875 1.6875-1.4531 2.5312 1.4062-0.78125 2.8516-1.4844 4.3359-2.1094-0.23437 0.097657-0.46875 0.19531-0.70312 0.29297 3.5742-1.4922 7.332-2.5195 11.172-3.0469-0.26562 0.039063-0.51562 0.070313-0.78125 0.10938 3.9258-0.52734 7.9023-0.52734 11.828 0-0.26563-0.039062-0.51563-0.070312-0.78125-0.10938 3.8359 0.52734 7.5977 1.5547 11.172 3.0469-0.23437-0.097656-0.46875-0.19531-0.70312-0.29297 1.4844 0.625 2.9297 1.3281 4.3359 2.1094 1.3359 0.74219 3.2617 0.37109 4.0039-1.0547 0.72266-1.375 0.38281-3.2109-1.0547-4.0039-5.5664-3.0781-11.633-4.9609-17.938-5.6719-5.9961-0.68359-12.195-0.11719-17.988 1.5625-3.4297 0.98437-6.7461 2.3906-9.875 4.1094-0.89844 0.49609-1.4531 1.5156-1.4531 2.5312v6.6406 10.645 2.4297c0 1.582 1.3359 2.9297 2.9297 2.9297h4.2891 10.188 12.414 10.695c1.7266 0 3.4688 0.039062 5.2031 0h0.078124c1.582 0 2.9297-1.3359 2.9297-2.9297v-6.6406-10.645-2.4297c0-1.5312-1.3477-3-2.9297-2.9297-1.5586 0.0625-2.9062 1.2852-2.9062 2.9258z"></path> <path d="m11.602 62.039c-1.1719 2.5703-2.3516 5.125-3.5234 7.6953-0.16406 0.37109-0.34375 0.73438-0.50781 1.1016-0.44922 0.97656-0.56641 1.9844 0 2.9609 0.51563 0.89062 1.4922 1.4531 2.5312 1.4531h8.0664c1.0352 0 2.0117-0.55469 2.5312-1.4531 0.56641-0.97656 0.44922-1.9844 0-2.9609-1.1719-2.5703-2.3516-5.125-3.5234-7.6953-0.16406-0.37109-0.34375-0.73438-0.50781-1.1016-0.29297-0.625-1.1133-1.1719-1.7461-1.3477-0.70312-0.19531-1.6328-0.10938-2.2578 0.29297-0.625 0.39844-1.1719 1.0078-1.3477 1.7461-0.1875 0.8125-0.046875 1.5039 0.29297 2.2578 1.1719 2.5703 2.3516 5.125 3.5234 7.6953 0.16406 0.37109 0.34375 0.73438 0.50781 1.1016 0.83984-1.4648 1.6875-2.9375 2.5312-4.4062h-8.0664c0.83984 1.4648 1.6875 2.9375 2.5312 4.4062 1.1719-2.5703 2.3516-5.125 3.5234-7.6953 0.16406-0.37109 0.34375-0.73438 0.50781-1.1016 0.34375-0.73438 0.51562-1.4453 0.29297-2.2578-0.1875-0.68359-0.71094-1.4141-1.3477-1.7461-1.2969-0.67969-3.3281-0.4375-4.0117 1.0547z"></path> <path d="m11.203 47.062v14.395 2.0625c0 1.5312 1.3477 3 2.9297 2.9297 1.5938-0.070313 2.9297-1.2891 2.9297-2.9297v-14.395-2.0625c0-1.5312-1.3477-3-2.9297-2.9297-1.5938 0.066407-2.9297 1.2891-2.9297 2.9297z"></path> </g> </svg>