<svg width="700" height="700" viewBox="0 0 700 700" fill="none" xmlns="http://www.w3.org/2000/svg">
<path d="M140.682 345.06C140.381 347.022 139.733 346.96 138.422 346.883L129.082 346.327C127.772 346.327 127.124 346.234 127.049 344.257V343.732H126.145V347.099L125.874 348.953C125.874 349.524 125.783 350.111 125.723 350.683L125.618 352.32H126.491L126.521 351.857C126.823 349.895 127.455 349.957 128.781 350.034L132.743 350.266L132.336 357.371L128.374 357.139C127.064 357.062 126.416 357.047 126.341 355.069V354.544H125.467V357.912L125.271 359.719C125.271 360.29 125.181 360.877 125.121 361.449L125 363.086H125.874L125.979 362.654C126.28 360.692 126.913 360.754 128.239 360.831L137.579 361.387C138.889 361.464 139.537 361.48 139.612 363.457V363.982H140.516V360.615L140.622 358.715C140.622 358.143 140.712 357.556 140.772 356.985L140.893 355.347H140.019L139.944 355.873C139.642 357.834 138.995 357.773 137.684 357.68L133.466 357.433L133.993 350.297L138.211 350.544C139.522 350.621 140.17 350.636 140.245 352.614V353.139H141.119V349.771L141.224 347.871C141.224 347.3 141.315 346.713 141.375 346.141L141.495 344.504H140.622L140.682 345.06ZM142.685 318.446L129.384 320.964L129.158 322.107L139.597 329.32C141.104 330.355 142.264 331.081 142.234 333.028L143.092 333.182C143.187 332.372 143.322 331.568 143.499 330.772L144.207 327.498L143.333 327.312L143.137 327.853C142.836 328.625 142.61 329.197 141.631 328.996C140.972 328.782 140.358 328.441 139.823 327.992L139.326 327.652L140.335 322.431L141.089 322.277C141.843 322.037 142.64 321.968 143.424 322.076C144.222 322.231 144.071 323.08 144.026 323.621V324.239L144.885 324.393L145.292 321.953L145.849 319.095L146.452 316.361L145.593 316.207C145.096 318.029 143.981 318.184 142.67 318.431L142.685 318.446ZM138.287 327.019L133.315 323.667L139.115 322.648L138.287 327.019ZM159.226 289.762L159.527 288.836L154.285 286.982L153.803 288.372C153.562 289.067 153.321 289.145 152.598 288.913L142.896 285.438C141.646 284.974 141.028 284.789 141.495 282.873L141.586 282.348L140.757 282.039L140.245 283.584L139.733 285.237L139.175 286.982C139.001 287.507 138.8 288.023 138.573 288.527C138.362 288.99 138.196 289.546 138.031 290.071L138.859 290.38L139.07 289.917C139.884 288.11 140.486 288.372 141.736 288.805L151.137 292.172C152.492 292.635 152.191 293.13 151.935 293.84L150.549 297.918C150.308 298.629 150.248 299.2 148.892 298.69L139.477 295.447C138.241 294.983 137.609 294.798 138.076 292.883L138.196 292.373L137.368 292.064L136.856 293.609L136.343 295.261L135.741 297.053L135.138 298.675L134.596 300.22L135.424 300.529L135.635 300.065C136.449 298.258 137.051 298.521 138.302 298.953L147.144 302.12C148.395 302.583 149.012 302.768 148.545 304.684L148.425 305.193L149.253 305.502L150.308 302.305L153.667 292.651C154.315 290.597 155.174 289.129 159.241 289.824L159.226 289.762ZM147.611 268.755C148.636 267.056 149.208 267.396 150.383 267.983L158.774 272.231C159.979 272.849 160.552 273.096 159.859 274.949L159.678 275.444L160.461 275.845L161.154 274.301C161.38 273.729 161.606 273.219 161.862 272.756L162.676 271.057L163.474 269.512L164.197 268.045L163.414 267.643L163.143 268.107C162.118 269.806 161.561 269.497 160.371 268.879L151.98 264.631C150.805 264.013 150.203 263.766 150.895 261.913L151.076 261.419L150.293 261.017L149.6 262.562L148.892 264.106L148.063 265.805L147.28 267.35L146.557 268.817L147.34 269.219L147.611 268.755ZM163.73 252.228C164.663 252.822 165.703 253.22 166.788 253.396C167.873 253.573 168.981 253.525 170.048 253.256C171.115 252.987 172.118 252.502 172.999 251.829C173.88 251.156 174.622 250.31 175.179 249.339C177.695 245.401 177.74 240.072 173.522 237.183C169.907 234.758 164.935 235.376 161.892 240.118C159.181 244.381 159.753 249.54 163.7 252.228H163.73ZM162.751 240.798C163.61 239.454 165.975 237.152 171.127 240.612C175.752 243.702 175.646 246.513 174.366 248.614C173.462 250.004 171.051 252.104 165.869 248.614C160.687 245.123 161.953 242.08 162.766 240.798H162.751ZM177.032 220.795C178.448 219.451 178.915 219.914 179.894 220.795L186.884 227.189C187.863 228.085 188.39 228.518 187.231 230.124L186.929 230.541L187.577 231.159L188.631 229.923L189.716 228.595L190.951 227.174L192.111 225.907L193.196 224.703L192.533 224.085L192.157 224.44C190.74 225.784 190.273 225.32 189.294 224.44L186.131 221.552L190.756 216.223L193.919 219.111C194.898 220.007 195.425 220.439 194.266 222.046L193.964 222.463L194.627 223.081L195.682 221.845L196.781 220.517L198.017 219.096L199.176 217.829L200.261 216.624L199.583 215.975L199.207 216.331C197.791 217.675 197.324 217.211 196.344 216.331L189.37 209.998C188.39 209.102 187.863 208.669 189.023 207.063L189.324 206.646L188.662 206.028L187.607 207.264L186.523 208.592L185.287 210.013L184.127 211.28L183.043 212.485L183.705 213.102L184.082 212.747C185.498 211.403 185.965 211.867 186.944 212.747L189.957 215.45L185.287 220.702L182.274 217.999C181.295 217.072 180.768 216.671 181.928 215.064L182.229 214.647L181.566 214.029L180.512 215.265L179.427 216.593L178.192 218.014L177.032 219.281L175.947 220.486L176.61 221.104L177.032 220.795ZM207.612 208.021L208.185 208.7C208.749 208.123 209.342 207.576 209.963 207.063L212.493 204.947L211.921 204.252L211.439 204.561C210.746 204.978 210.234 205.287 209.541 204.468C209.154 203.882 208.878 203.227 208.727 202.537L208.546 201.95L212.493 198.506L213.171 198.846C213.909 199.139 214.577 199.592 215.13 200.174C215.657 200.792 215.039 201.379 214.678 201.719L214.256 202.182L214.828 202.862L216.636 201.209L217.63 200.344L218.76 199.355L220.869 197.594L220.297 196.899C218.911 198.011 217.932 197.424 216.772 196.791L204.856 190.396L203.982 191.169L207.823 203.526C208.366 205.225 208.833 206.522 207.628 208.036L207.612 208.021ZM211.439 197.903L208.17 200.792L206.362 195.015L211.439 197.903ZM224.876 176.278C226.533 175.429 227.512 176 229.004 178.873C230.287 180.977 231.057 183.366 231.248 185.84C231.354 187.384 230.917 187.693 230.796 187.786C230.534 187.896 230.247 187.928 229.968 187.879C229.57 187.816 229.163 187.903 228.823 188.126C228.657 188.221 228.511 188.351 228.396 188.506C228.28 188.661 228.196 188.838 228.15 189.028C228.103 189.217 228.095 189.414 228.125 189.607C228.155 189.8 228.224 189.984 228.326 190.149C228.462 190.348 228.638 190.515 228.84 190.641C229.043 190.767 229.269 190.848 229.504 190.88C229.739 190.912 229.977 190.894 230.205 190.826C230.433 190.759 230.644 190.644 230.827 190.489C231.272 190.188 231.652 189.798 231.945 189.341C232.238 188.884 232.436 188.371 232.529 187.832C233.192 184.743 231.474 180.464 229.516 176.865L228.492 175.012C228.386 174.796 228.19 174.363 228.853 173.931L230.661 172.695C230.932 172.51 231.158 172.386 231.504 172.927L237.274 182.194C237.982 183.337 238.359 183.893 236.822 185.129L236.415 185.438L236.897 186.21L238.253 185.315L239.654 184.341L241.161 183.307L242.667 182.411C243.209 182.133 243.571 181.839 244.023 181.546L243.541 180.773L243.089 181.02C241.372 181.947 241.04 181.36 240.317 180.217L235.24 172.077C234.532 170.934 234.156 170.378 235.692 169.142L236.099 168.833L235.617 168.061L234.261 168.988L232.86 169.961L227.256 173.668L224.048 175.707L224.53 176.479L224.876 176.278ZM248.919 161.728C250.199 161.218 250.802 161.265 251.555 162.902L255.532 171.645C256.285 173.297 255.924 173.807 254.718 174.471L254.417 174.626L254.794 175.444L258.409 173.637L262.1 171.907C264.54 170.749 267.629 168.663 265.987 165.034C265.634 164.23 265.053 163.554 264.319 163.097C263.584 162.639 262.732 162.42 261.874 162.469C260.4 162.583 258.966 163.02 257.671 163.752L256.255 164.477L254.749 161.296C253.995 159.643 254.357 159.133 255.562 158.469L255.863 158.314L255.487 157.496L252.971 158.778L251.856 159.303L250.742 159.844L248.181 161.002L248.557 161.821L248.919 161.728ZM257.807 164.972C258.16 164.739 258.557 164.584 258.972 164.517C259.387 164.451 259.811 164.474 260.217 164.586C260.689 164.777 261.118 165.066 261.476 165.436C261.834 165.805 262.113 166.247 262.296 166.733C263.501 169.359 262.19 170.594 261.121 171.119C260.905 171.231 260.668 171.293 260.427 171.301C260.185 171.308 259.945 171.26 259.723 171.161C259.502 171.063 259.304 170.915 259.145 170.729C258.985 170.543 258.868 170.323 258.801 170.084L256.722 165.451C257.069 165.327 257.475 165.142 257.807 164.956V164.972ZM275.733 149.989C277.631 149.587 277.797 150.236 278.189 151.533L280.93 160.709C281.322 162.006 281.533 162.639 279.755 163.396L279.273 163.597L279.529 164.462L281.036 163.952L282.633 163.396L284.41 162.84L286.037 162.377L287.544 161.913L287.287 161.048L286.79 161.157C284.892 161.558 284.727 160.909 284.335 159.612L283.175 155.472L289.803 153.387L291.054 157.558C291.445 158.855 291.656 159.473 289.848 160.245L289.396 160.446L289.653 161.311L291.159 160.801L292.756 160.245L294.533 159.689L296.16 159.226L297.667 158.762L297.411 157.897L296.914 158.005C295.015 158.407 294.85 157.758 294.458 156.461L291.716 147.286C291.325 145.988 291.114 145.37 292.891 144.598L293.373 144.397L293.117 143.532L291.611 144.042L290.014 144.598L288.236 145.154L286.61 145.618L285.103 146.081L285.359 146.946L285.856 146.838C287.754 146.436 287.92 147.085 288.312 148.382L289.472 152.244L282.843 154.329L281.668 150.468C281.277 149.17 281.066 148.552 282.843 147.78L283.326 147.579L283.069 146.714L281.563 147.209L279.966 147.765L278.189 148.321L276.562 148.784L275.055 149.247L275.311 150.112L275.733 149.989ZM307.971 141.076C309.899 140.968 309.974 141.632 310.17 142.976L311.571 152.46C311.767 153.804 311.872 154.468 310.065 154.932L309.568 155.055L309.718 155.951L311.225 155.689L312.882 155.38L314.795 155.071L316.452 154.854L318.034 154.638L317.883 153.742H317.371C316.241 153.82 315.458 153.85 315.217 152.198V151.92L321.363 143.023L322.508 150.746C322.704 152.09 322.809 152.754 321.001 153.217L320.504 153.341L320.655 154.237L322.161 153.974L323.818 153.665L325.626 153.387L327.313 153.171L328.895 152.955L328.744 152.059H328.232C326.304 152.167 326.229 151.503 326.033 150.159L324.632 140.675C324.436 139.346 324.33 138.667 326.138 138.203L326.635 138.08L326.485 137.153L324.978 137.416L323.321 137.724L321.483 138.003L319.796 138.219L318.214 138.435L318.365 139.331H318.877C320.007 139.254 320.775 139.207 321.046 141.03V141.215L314.9 150.143L313.755 142.42C313.56 141.076 313.454 140.412 315.262 139.949L315.759 139.825L315.608 138.929L314.102 139.192L312.445 139.501L310.607 139.779L308.95 139.995L307.368 140.211L307.519 141.107L307.971 141.076ZM350.844 135.129C353.766 135.129 355.273 133.739 355.273 132.581C355.285 132.388 355.259 132.194 355.197 132.011C355.135 131.828 355.038 131.66 354.912 131.516C354.786 131.372 354.632 131.255 354.462 131.173C354.291 131.091 354.105 131.044 353.917 131.036C353.606 131.006 353.295 131.102 353.053 131.305C352.81 131.507 352.655 131.799 352.621 132.117C352.631 132.295 352.688 132.466 352.787 132.612C352.907 132.766 353.088 132.921 353.088 133.106C353.088 133.569 352.275 134.218 350.859 134.218C349.443 134.218 348.644 133.539 348.644 133.091C348.644 132.905 348.825 132.751 348.945 132.596C349.044 132.45 349.102 132.279 349.111 132.102C349.081 131.781 348.927 131.485 348.684 131.279C348.442 131.074 348.129 130.975 347.816 131.005C347.625 131.007 347.437 131.049 347.263 131.127C347.088 131.206 346.931 131.321 346.802 131.464C346.672 131.607 346.572 131.776 346.508 131.96C346.444 132.144 346.417 132.34 346.43 132.535C346.43 133.724 347.936 135.114 350.844 135.129ZM344.366 151.997H349.488V151.101H348.976C347.846 151.008 347.078 150.9 347.078 149.17V148.892L354.459 141.061V148.938C354.459 150.298 354.459 150.947 352.561 151.147H352.049V152.043H360.485V151.24H360.018C358.09 151.055 358.12 150.375 358.12 149.031V139.454C358.12 138.095 358.12 137.446 360.018 137.246H360.53V136.226H352.199V137.153H352.712C353.841 137.246 354.61 137.307 354.61 139.161V139.346L347.228 147.224V139.346C347.228 137.987 347.228 137.338 349.141 137.138H349.654V136.211H341.218V137.153H341.73C343.658 137.354 343.628 138.018 343.628 139.362V148.938C343.628 150.298 343.628 150.947 341.715 151.147H341.202V152.043H344.396L344.366 151.997ZM392.27 156.785C394.982 157.403 396.639 155.04 398.447 152.8L401.821 148.63C404.578 145.231 405.361 144.181 406.762 144.382L406.958 143.501L404.156 142.93L401.821 142.312L401.625 143.192C402.951 143.393 403.207 144.088 403.132 144.552C403.056 145.015 402.288 146.019 398.763 150.375L396.985 144.428C396.849 143.984 396.803 143.516 396.85 143.053C397.001 142.281 397.754 142.405 398.356 142.482H398.733L398.929 141.601L395.118 140.798L391.502 139.902L391.306 140.783C391.771 140.981 392.183 141.289 392.51 141.68C392.837 142.072 393.07 142.537 393.189 143.038L396.202 153.233L395.72 153.804C395.298 154.298 394.741 155.04 394.214 154.885C393.912 154.885 393.732 154.468 393.491 154.159C393.282 153.819 392.953 153.575 392.572 153.48C392.369 153.41 392.154 153.385 391.941 153.406C391.728 153.428 391.523 153.496 391.337 153.605C391.152 153.715 390.992 153.864 390.867 154.042C390.742 154.22 390.656 154.423 390.613 154.638C390.463 155.534 390.915 156.461 392.27 156.77V156.785ZM417.533 163.35L419.266 164.014L420.772 164.663C421.224 164.879 421.766 165.064 422.278 165.281L422.58 164.431L422.128 164.199C420.395 163.334 420.621 162.655 421.103 161.45L422.61 157.372L429.118 159.874L427.611 163.937C427.159 165.203 426.948 165.837 425.08 165.327L424.583 165.173L424.282 166.022L425.788 166.578L427.385 167.134L429.118 167.798L430.624 168.447C431.076 168.663 431.618 168.849 432.13 169.065L432.432 168.215L431.98 167.984C430.247 167.119 430.473 166.439 430.955 165.234L434.239 156.245C434.691 154.978 434.902 154.345 436.77 154.854L437.267 155.009L437.569 154.159L436.062 153.603L434.465 153.047L432.733 152.383L431.227 151.734L429.72 151.116L429.419 151.966L429.871 152.198C431.603 153.063 431.377 153.742 430.895 154.947L429.539 158.809L423.032 156.306L424.418 152.507C424.869 151.24 425.08 150.607 426.948 151.116L427.445 151.271L427.747 150.421L426.24 149.865L424.643 149.309L422.911 148.645L421.405 147.996C420.953 147.78 420.41 147.595 419.898 147.409L419.597 148.259L420.049 148.491C421.781 149.356 421.555 150.035 421.073 151.24L417.789 160.23C417.337 161.496 417.126 162.13 415.258 161.62L414.761 161.465L414.46 162.315L415.966 162.871L417.533 163.35ZM446.246 175.985L447.903 176.865L449.409 177.715L450.81 178.487L451.217 177.684L450.765 177.406C449.138 176.325 449.469 175.738 450.087 174.548L454.426 166.053C455.028 164.848 455.329 164.246 457.107 165.003L457.559 165.203L457.966 164.4L456.535 163.659L455.028 162.887L453.371 161.96L450.464 160.322L450.057 161.126L450.479 161.404C452.106 162.485 451.774 163.072 451.172 164.261L446.833 172.757C446.231 173.962 445.929 174.564 444.152 173.807L443.7 173.606L443.293 174.409L446.246 175.954V175.985Z" fill="black"/>
<path d="M473.602 191.138C474.533 190.94 475.357 190.388 475.907 189.593C477.414 187.23 475.757 184.558 473.979 183.168C476.51 184.434 478.498 183.785 479.342 182.395C479.768 181.719 479.934 180.904 479.809 180.109C479.508 178.101 477.399 176.634 476.344 175.877L472.879 173.56L470.107 171.552L469.61 172.293L470.002 172.664C471.508 173.931 471.117 174.471 470.364 175.599L465.136 183.476C464.383 184.604 464.052 185.176 462.349 184.218L461.897 183.971L461.4 184.712L464.609 186.844C467.29 188.744 470.68 191.787 473.602 191.122V191.138ZM474.145 176.464C474.386 176.109 474.491 175.892 474.958 176.217L475.35 176.479C475.666 176.673 475.938 176.935 476.147 177.247C476.356 177.558 476.496 177.912 476.559 178.285C476.622 178.658 476.606 179.04 476.512 179.405C476.417 179.771 476.247 180.111 476.013 180.403C475.832 180.773 475.57 181.096 475.247 181.345C474.924 181.594 474.549 181.763 474.152 181.838C473.755 181.913 473.346 181.892 472.957 181.777C472.569 181.662 472.212 181.456 471.915 181.175L471.313 180.742L474.145 176.464ZM468.119 185.577L470.68 181.716L471.539 182.333C471.971 182.535 472.352 182.839 472.648 183.22C472.945 183.601 473.149 184.048 473.245 184.526C473.34 185.003 473.324 185.497 473.198 185.967C473.071 186.437 472.838 186.87 472.518 187.23C470.861 189.701 469.113 188.666 468.646 188.342C468.42 188.211 468.224 188.031 468.073 187.814C467.921 187.597 467.819 187.349 467.771 187.086C467.724 186.824 467.733 186.555 467.798 186.296C467.864 186.038 467.983 185.798 468.149 185.593L468.119 185.577ZM493.788 210.368L494.692 209.225C495.349 208.415 496.064 207.656 496.831 206.955L496.154 206.337C495.801 206.705 495.378 206.995 494.911 207.188C494.443 207.381 493.943 207.473 493.439 207.459C492.936 207.444 492.441 207.323 491.985 207.104C491.529 206.884 491.123 206.571 490.791 206.183C489.284 204.839 488.938 203.912 490.791 201.703L492.809 199.355L493.261 199.741C493.544 199.956 493.778 200.23 493.947 200.546C494.117 200.861 494.218 201.21 494.244 201.57C494.27 201.929 494.219 202.29 494.097 202.627C493.974 202.965 493.781 203.271 493.532 203.526L494.21 204.144L496.229 201.672L498.338 199.309L497.66 198.691C497.449 198.959 497.186 199.179 496.888 199.338C496.589 199.496 496.263 199.59 495.927 199.613C495.592 199.637 495.256 199.589 494.94 199.472C494.624 199.356 494.334 199.174 494.09 198.938L493.638 198.537L496.651 194.953C497.404 194.073 497.434 194.026 498.157 194.737L498.549 195.077C499.724 196.158 501.562 197.95 499.905 200.375L500.658 201.054L503.219 197.78L495.988 191.354C495.144 190.582 495.988 191.261 493.578 189.068L492.975 189.748L493.322 190.134C494.647 191.586 494.195 192.065 493.322 193.069L487.145 200.267C486.271 201.286 485.865 201.811 484.283 200.637L483.861 200.328L483.259 201.008L485.774 203.171L493.788 210.368ZM503.761 220.671L504.906 221.938L506.141 223.359L507.301 224.78L508.416 226.108L509.079 225.49L508.777 225.073C507.376 223.112 508.175 222.71 508.988 221.984L512.001 219.235L512.95 220.347C516.942 224.981 519.609 223.282 520.482 222.432C521.838 221.196 522.682 218.632 519.624 215.172L516.761 211.975C516.129 211.28 515.632 210.585 514.231 208.886L513.568 209.503L513.869 209.921C514.999 211.465 514.502 211.929 513.508 212.855L506.488 219.188C505.493 220.084 504.981 220.548 503.625 219.188L503.249 218.833L502.586 219.451L503.761 220.687V220.671ZM516.897 214.863C517.454 214.354 517.605 214.4 518.178 215.064C518.491 215.351 518.738 215.706 518.898 216.105C519.058 216.503 519.127 216.934 519.101 217.364C519.075 217.794 518.954 218.212 518.747 218.587C518.54 218.962 518.253 219.284 517.906 219.528C517.594 219.854 517.215 220.104 516.796 220.261C516.378 220.419 515.931 220.479 515.487 220.437C515.043 220.396 514.614 220.254 514.23 220.022C513.846 219.79 513.517 219.474 513.267 219.096C513.117 218.913 512.976 218.722 512.845 218.524L516.897 214.863ZM528.466 251.069L527.608 252.228L528.18 253.093L530.44 251.548L532.549 250.158L531.976 249.293C530.989 249.9 529.818 250.113 528.687 249.89C527.556 249.668 526.544 249.027 525.845 248.088C524.896 246.636 523.736 243.3 528.632 239.902C533.031 236.813 535.863 238.249 536.993 239.979C537.398 240.561 537.651 241.241 537.728 241.952C537.804 242.663 537.702 243.382 537.43 244.041C537.169 244.772 536.764 245.44 536.24 246.003L536.842 246.884L540.789 243.794L540.217 242.929L538.906 243.393C539.016 241.745 538.569 240.108 537.641 238.759C537.068 237.808 536.312 236.986 535.419 236.345C534.527 235.703 533.516 235.255 532.448 235.028C531.381 234.801 530.279 234.8 529.211 235.024C528.143 235.249 527.131 235.694 526.237 236.334C525.322 236.909 524.535 237.677 523.93 238.586C523.324 239.495 522.912 240.525 522.721 241.609C522.531 242.692 522.566 243.805 522.824 244.873C523.082 245.942 523.557 246.943 524.218 247.81C525.197 249.387 526.71 250.537 528.466 251.039V251.069ZM546.815 260.955L538.379 265.126C537.174 265.713 536.616 266.022 535.607 264.353L535.336 263.89L534.537 264.276L535.26 265.743L536.044 267.288L536.857 268.987L537.55 270.532L538.228 272.076L539.026 271.675L538.846 271.181C538.439 270.099 538.183 269.327 539.704 268.586L539.961 268.462L550.054 271.86L543.154 275.289C541.949 275.876 541.392 276.185 540.382 274.517L540.126 274.054L539.328 274.455L540.051 275.923L540.834 277.467L541.633 279.166L542.326 280.711L543.003 282.256L543.802 281.854L543.621 281.36C542.958 279.506 543.546 279.228 544.736 278.641L553.172 274.471C554.377 273.884 554.934 273.575 555.944 275.243L556.2 275.706L556.998 275.32L556.275 273.853L555.492 272.308L554.678 270.609L553.985 269.064L553.307 267.52L552.509 267.906L552.69 268.4C553.097 269.481 553.368 270.223 551.741 271.026L551.59 271.103L541.452 267.736L548.381 264.292C549.587 263.705 550.144 263.396 551.153 265.064L551.409 265.527L552.208 265.126L551.485 263.658L550.701 262.114L549.797 260.415L549.104 258.87L548.427 257.325L547.628 257.711L547.809 258.206C548.502 260.09 547.899 260.368 546.785 260.955H546.815ZM564.018 299.339C564.832 301.965 564.139 303.355 562.692 304.128L562.241 304.375L562.542 305.301L566.7 303.757L565.043 298.66L563.687 294.257L562.18 289.16L557.902 290.365L558.203 291.292H558.716C560.373 291.075 561.728 291.817 562.512 294.381C562.753 295.153 562.512 295.184 561.909 295.385L552.057 298.598C550.807 299.015 550.189 299.216 549.421 297.408L549.225 296.945L548.381 297.223L548.894 298.768L549.451 300.405L550.008 302.212L550.46 303.88L550.912 305.425L551.756 305.147L551.65 304.637C551.244 302.707 551.876 302.521 553.157 302.104L563.009 298.891C563.611 298.675 563.792 298.536 564.063 299.355L564.018 299.339ZM561.638 333.012C561.139 333.079 560.632 333.039 560.149 332.896C559.666 332.753 559.217 332.51 558.83 332.181C558.442 331.852 558.125 331.444 557.898 330.984C557.671 330.524 557.539 330.021 557.51 329.506C557.149 327.498 557.42 326.571 560.252 326.015L563.265 325.443L563.37 326.03C563.454 326.374 563.466 326.731 563.405 327.08C563.344 327.428 563.211 327.759 563.016 328.051C562.821 328.343 562.568 328.589 562.273 328.773C561.978 328.958 561.649 329.076 561.307 329.12L561.457 330.046L564.47 329.398L567.483 328.888L567.332 327.961C566.993 328.047 566.64 328.057 566.296 327.991C565.953 327.925 565.627 327.783 565.341 327.577C565.056 327.37 564.817 327.103 564.64 326.794C564.464 326.485 564.355 326.14 564.319 325.783L564.214 325.196L568.733 324.331C569.848 324.115 569.908 324.084 570.089 325.15L570.179 325.66C570.481 327.204 570.842 329.83 568.07 330.695L568.251 331.699L572.243 330.742L570.436 321.134C570.225 319.991 570.435 321.026 569.908 317.813L569.05 317.967V318.493C569.2 320.47 568.568 320.562 567.272 320.81L558.083 322.555C556.787 322.802 556.155 322.957 555.612 321.01L555.462 320.501L554.603 320.655L555.266 323.961L557.119 334.572L558.52 334.263C559.512 334.042 560.519 333.897 561.533 333.831L561.638 333.012ZM574.895 356.491L574.638 351.857L574.412 346.512H569.984V347.485H570.496C572.153 347.702 573.268 348.752 573.403 351.501C573.403 352.335 573.207 352.274 572.56 352.305L562.241 352.922C560.915 352.922 560.282 353.077 559.981 351.1L559.906 350.575H559.032C559.032 351.115 559.032 351.656 559.152 352.212C559.273 352.768 559.273 353.37 559.303 353.942L559.408 355.842V359.209H560.282V358.684C560.358 356.707 561.005 356.676 562.331 356.614L572.65 356.027C573.298 356.027 573.524 355.904 573.554 356.738C573.704 359.472 572.695 360.646 571.098 361.063L570.586 361.186V362.159L575 361.696L574.895 356.491ZM515.3 366.84C515.319 341.659 509.86 316.792 499.32 294.049C488.78 271.306 473.425 251.261 454.373 235.373C435.321 219.484 413.053 208.154 389.191 202.207C365.328 196.26 340.472 195.846 316.434 200.995C292.395 206.144 269.78 216.727 250.235 231.972C230.69 247.217 214.708 266.74 203.453 289.12C192.198 311.5 185.953 336.172 185.174 361.34C184.396 386.507 189.102 411.536 198.951 434.603L200.547 429.088C190.587 403.968 186.794 376.724 189.501 349.75C192.208 322.775 201.332 296.894 216.072 274.38C230.812 251.866 250.717 233.406 274.04 220.622C297.363 207.837 323.39 201.12 349.836 201.058C376.283 200.997 402.339 207.594 425.718 220.27C449.097 232.946 469.084 251.313 483.923 273.759C498.762 296.204 508.001 322.042 510.826 349.004C513.652 375.966 509.98 403.227 500.131 428.393L501.788 433.892C510.729 412.727 515.333 389.905 515.315 366.84H515.3ZM500.763 436.147L499.166 430.834L494.828 416.376L492.809 421.89C483.448 447.329 467.796 469.834 447.391 487.197L445.884 488.479L446.743 489.53L453.22 497.515C424.063 521.763 387.662 534.996 350.12 534.996C312.579 534.996 276.178 521.763 247.021 497.515L253.528 489.483L254.387 488.433L252.881 487.151C232.742 469.952 217.243 447.743 207.869 422.647L205.835 417.164L201.557 431.575L200.05 436.873L198.544 442.032L174.742 428.594L176.655 433.722C182.745 450.273 191.061 465.87 201.361 480.061L192.232 487.166L193.437 488.711C211.752 513.557 235.435 533.712 262.626 547.592C289.817 561.473 319.776 568.701 350.151 568.71C380.525 568.719 410.488 561.508 437.687 547.644C464.886 533.779 488.58 513.639 506.909 488.804L508.115 487.259L498.986 480.154C509.294 465.934 517.609 450.306 523.691 433.722L525.589 428.532L502.496 441.97L500.763 436.147ZM350.12 564.815C320.659 564.9 291.575 558.013 265.134 544.689C238.692 531.366 215.605 511.967 197.67 488L217.706 472.446C223.928 480.658 230.85 488.288 238.389 495.245C269.11 523.451 308.898 539.048 350.136 539.048C391.373 539.048 431.161 523.451 461.882 495.245C469.398 488.31 476.299 480.707 482.505 472.523L492.146 480.03L494.075 481.575L502.511 488.139C484.575 512.061 461.503 531.422 435.088 544.719C408.672 558.017 379.623 564.893 350.196 564.815H350.12ZM248.316 489.746L245.68 492.99L244.023 494.951C238.694 490.243 233.662 485.192 228.959 479.829L235.979 483.845C239.899 485.925 243.922 487.797 248.03 489.452L248.452 489.607L248.316 489.746ZM451.91 489.638L452.392 489.452L464.443 483.892L471.463 479.876C466.73 485.236 461.668 490.282 456.309 494.982L454.727 493.02L452.091 489.777L451.91 489.638ZM202.415 442.248L203.922 437.12L206.212 429.397C214.456 449.28 226.515 467.261 241.673 482.27L238.811 480.833C234.74 478.745 230.787 476.425 226.97 473.882C224.413 472.191 221.948 470.355 219.589 468.384L218.459 466.839L217.51 467.58L204.434 477.744C195.444 465.354 187.995 451.863 182.259 437.584L200.698 448.087L202.415 442.248ZM494.542 476.786L481.797 466.901L480.743 468.322C478.384 470.294 475.92 472.13 473.361 473.821C469.551 476.38 465.603 478.716 461.536 480.818L458.674 482.254C474.013 467.069 486.171 448.837 494.406 428.671L496.726 436.394L498.232 441.553L500.146 447.948L517.952 437.599C512.211 451.879 504.757 465.37 495.762 477.759L494.542 476.786ZM180.15 402.706C180.132 403.192 179.98 403.663 179.713 404.065C179.34 404.648 179.184 405.351 179.277 406.042C179.304 406.372 179.397 406.693 179.549 406.985C179.702 407.277 179.91 407.534 180.162 407.74C180.415 407.947 180.705 408.099 181.017 408.187C181.328 408.274 181.653 408.296 181.973 408.251C182.366 408.174 182.739 408.015 183.069 407.783C183.398 407.55 183.677 407.251 183.888 406.902C184.099 406.554 184.237 406.164 184.294 405.759C184.351 405.353 184.325 404.939 184.218 404.544C184.079 403.634 183.762 402.763 183.285 401.982C182.809 401.202 182.183 400.528 181.446 400.003C177.273 396.805 169.651 396.45 162.872 397.068L159.347 397.377C158.955 397.377 158.141 397.377 157.991 396.033L157.479 392.372C157.403 391.816 157.373 391.368 158.428 391.214L176.234 388.588C178.448 388.279 179.548 388.063 180.301 391.322L180.497 392.187L182.003 391.971C181.883 391.044 181.747 390.117 181.581 389.221L181.099 386.333L180.647 383.151C180.497 382.193 180.406 381.189 180.316 380.216C180.226 379.243 180.09 378.363 179.97 377.467L178.463 377.683V378.563C178.614 381.915 177.529 382.039 175.3 382.363L159.633 384.68C157.418 384.989 156.319 385.205 155.565 381.946L155.37 381.081L153.863 381.297C154.014 382.224 154.119 383.151 154.285 384.031C154.464 384.991 154.625 385.954 154.767 386.92L156.379 398.35L157.177 404.837L158.684 404.621V403.926C158.578 400.682 160.19 399.57 165.463 399.292C172.242 398.86 175.104 399.694 177.514 400.636C179.924 401.578 180.075 402.412 180.12 402.69L180.15 402.706ZM155.144 371.165C155.385 368.801 155.897 367.89 158.91 368.075L174.818 368.693C177.83 368.817 178.282 369.774 178.343 372.138V372.694H179.849L180 365.697L180.376 358.715C180.557 354.081 179.894 347.671 173.296 347.408C171.842 347.326 170.398 347.698 169.155 348.476C167.912 349.254 166.929 350.4 166.336 351.764C165.354 354.124 164.882 356.675 164.95 359.24V361.974L159.151 361.742C156.138 361.619 155.686 360.661 155.641 358.298V357.742H154.134V362.607L154.059 364.739C153.984 365.465 154.059 366.129 153.984 366.87C153.984 368.23 153.773 370.423 153.682 371.721H155.189L155.144 371.165ZM166.788 359.966C166.72 359.241 166.8 358.509 167.023 357.818C167.246 357.126 167.607 356.49 168.084 355.95C168.73 355.369 169.487 354.932 170.306 354.666C171.126 354.401 171.99 354.312 172.844 354.405C177.589 354.591 178.448 357.495 178.373 359.611C178.367 360.03 178.272 360.443 178.094 360.82C177.915 361.197 177.658 361.529 177.34 361.793C177.022 362.057 176.652 362.246 176.255 362.347C175.858 362.447 175.445 362.457 175.044 362.376L166.758 362.067L166.879 359.981L166.788 359.966Z" fill="black"/>
<path d="M180 342.125L181.506 342.434L182.756 335.947C183.962 330.448 186.462 323.127 183.585 318.802C182.672 317.426 181.282 316.459 179.698 316.098C175.104 315.079 172.076 319.497 171.112 323.25C171.458 318.385 169.259 315.681 166.592 315.094C165.289 314.835 163.937 315.077 162.796 315.774C159.904 317.52 159 321.844 158.533 324.038C158.066 326.231 157.705 328.672 157.177 331.066C156.53 333.97 156.771 332.611 155.852 336.781L157.358 337.09L157.614 336.24C158.608 333.043 159.678 333.306 161.862 333.8L177.348 337.229C179.533 337.692 180.617 337.909 180.241 341.245L180 342.125ZM169.455 327.791L169.184 329.027L160.748 327.112C160.055 326.957 159.663 326.911 159.844 325.969L159.994 325.196C160.089 324.553 160.319 323.939 160.67 323.397C161.021 322.856 161.484 322.399 162.025 322.06C162.566 321.722 163.174 321.509 163.804 321.437C164.435 321.365 165.073 321.435 165.674 321.644C170.434 322.725 169.741 326.432 169.44 327.791H169.455ZM178.493 331.097L170.961 329.429L171.338 327.652C172.543 321.875 176.761 322.679 178.207 323.018C183.028 324.1 182.546 327.652 182.35 328.533C182.293 328.976 182.144 329.401 181.912 329.779C181.68 330.157 181.371 330.479 181.006 330.723C180.641 330.967 180.228 331.127 179.797 331.191C179.366 331.256 178.926 331.223 178.508 331.097H178.493ZM187.381 311.017L187.155 311.866L188.556 312.407L189.46 309.781L190.394 307.001L191.494 303.989L192.578 301.27L193.558 298.69L192.157 298.15L191.78 298.953C190.273 301.965 189.324 301.533 187.261 300.729L172.437 295.014C170.328 294.211 169.304 293.856 170.148 290.612L170.374 289.763L168.973 289.222L168.069 291.848L167.135 294.628L166.035 297.717L164.95 300.436L163.956 303.015L165.357 303.556L165.734 302.753C167.24 299.741 168.189 300.173 170.253 300.977L185.076 306.692C187.185 307.418 188.27 307.773 187.381 311.017ZM188.737 263.241C187.562 262.605 186.2 262.435 184.911 262.762C181.657 263.581 179.563 267.396 178.493 269.404L175.209 275.737L172.347 280.835L173.643 281.576L174.14 280.804C175.993 278.023 176.927 278.641 178.885 279.722L192.744 287.6C194.702 288.712 195.682 289.222 194.371 292.234L194.024 293.053L195.335 293.794L198.348 287.924C201.06 283.012 205.519 276.726 203.982 271.768C203.486 270.166 202.407 268.821 200.969 268.014C196.857 265.697 192.714 269.018 190.725 272.308C192.533 267.829 191.177 264.585 188.767 263.226L188.737 263.241ZM187.984 276.293L187.381 277.421L179.849 273.096C179.246 272.741 178.87 272.586 179.322 271.737L179.698 271.026C179.968 270.435 180.362 269.913 180.851 269.496C181.34 269.079 181.913 268.778 182.529 268.614C183.145 268.45 183.788 268.428 184.413 268.548C185.039 268.669 185.63 268.93 186.146 269.312C190.364 271.737 188.662 275.027 187.999 276.262L187.984 276.293ZM197.7 274.316C202.024 276.788 200.562 279.985 200.11 280.835C199.931 281.245 199.666 281.61 199.334 281.904C199.002 282.199 198.612 282.415 198.19 282.539C197.768 282.662 197.325 282.69 196.892 282.62C196.459 282.549 196.046 282.383 195.682 282.132L188.963 278.317L189.822 276.772C192.624 271.52 196.42 273.575 197.73 274.301L197.7 274.316ZM198.649 238.357C197.436 239.775 196.517 241.432 195.948 243.226C195.379 245.02 195.172 246.913 195.34 248.792C195.507 250.671 196.046 252.494 196.923 254.153C197.801 255.811 198.998 257.269 200.442 258.437C206.769 263.689 214.452 262.5 219.513 256.12C221.509 253.738 222.581 250.687 222.526 247.548L224.786 248.397L225.87 247.007L222.195 244.072L218.926 241.246L217.841 242.636C220.161 245.262 221.908 249.664 218.956 253.448C217.148 255.719 212.388 259.21 204.705 252.799C197.745 246.992 198.529 241.647 200.713 238.898C201.433 237.941 202.38 237.189 203.464 236.713C204.548 236.238 205.732 236.054 206.904 236.179C208.189 236.253 209.444 236.594 210.595 237.183L211.71 235.793L205.006 230.696L203.922 232.086L205.323 234.032C202.672 234.671 200.315 236.226 198.649 238.434V238.357ZM217.811 218.401L216.305 219.791L212.644 222.88L213.623 224.038L214.075 223.699C215.928 222.262 216.937 222.03 218.896 224.378L229.29 236.735C231.248 239.083 230.887 240.041 229.29 241.724L228.898 242.126L229.877 243.285L234.969 238.651L240.212 234.171C243.646 231.082 247.744 226.263 243.435 221.15C242.502 220.006 241.252 219.179 239.851 218.779C238.449 218.38 236.962 218.425 235.587 218.91C233.239 219.79 231.102 221.175 229.32 222.973L227.362 224.826L223.445 220.27C221.487 217.922 221.848 216.949 223.445 215.28L223.837 214.879L222.933 213.736L219.423 217.01L217.811 218.401ZM229.862 224.78C230.331 224.235 230.906 223.796 231.549 223.49C232.192 223.184 232.89 223.018 233.598 223.004C234.461 223.084 235.298 223.348 236.055 223.779C236.813 224.209 237.474 224.798 237.997 225.506C241.1 229.182 239.504 231.87 237.997 233.229C237.695 233.512 237.336 233.724 236.945 233.848C236.554 233.973 236.141 234.008 235.735 233.95C235.33 233.893 234.941 233.744 234.598 233.516C234.255 233.287 233.965 232.983 233.749 232.627L228.326 226.17C228.974 225.707 229.441 225.197 229.953 224.78H229.862ZM241.281 199.093L238.931 200.452L239.684 201.78L240.468 201.41C243.481 200.019 243.963 200.993 245.092 202.954L253.076 217.01C254.206 218.988 254.794 219.945 252.142 221.907L251.434 222.417L252.188 223.73L254.508 222.293L256.948 220.748L259.66 219.127L262.175 217.736L264.525 216.377L263.772 215.064L262.989 215.435C259.976 216.825 259.494 215.852 258.364 213.89L254.568 207.156L255.773 206.43C257.189 205.58 258.56 205.348 261.151 207.403L264.405 210.029C266.514 211.728 269.301 213.998 273.594 211.419C274.656 210.845 275.506 209.93 276.012 208.814C276.518 207.698 276.653 206.443 276.396 205.24L274.769 205.426C274.769 206.198 274.679 206.878 274.046 207.279C272.901 207.974 271.154 206.816 270.37 206.322C264.766 202.877 261.784 202.244 258.982 203.232V203.124C259.584 202.197 260.066 200.884 259.584 197.038C259.373 195.494 258.876 193.177 260.142 192.404C260.709 192.212 261.312 192.154 261.904 192.235C262.38 192.207 262.843 192.07 263.26 191.833C263.568 191.681 263.841 191.465 264.063 191.198C264.286 190.932 264.451 190.621 264.551 190.286C264.65 189.951 264.68 189.598 264.639 189.25C264.599 188.902 264.488 188.567 264.314 188.265C263.561 186.906 262.055 186.18 259.946 187.446C256.074 189.701 256.632 193.779 257.084 196.868C257.596 200.236 258.063 202.738 255.185 204.483L253.559 205.457L250.35 199.834C249.22 197.857 248.632 196.899 251.284 194.938L251.992 194.428L251.239 193.115L248.919 194.551L246.478 196.096L243.767 197.718L241.281 199.108V199.093ZM283.009 177.313L281.925 199.124C281.774 202.213 281.774 204.607 278.912 206.275L279.409 207.712C280.638 207.131 281.895 206.615 283.175 206.167L288.417 204.36L287.92 202.923L286.986 203.078C285.63 203.31 284.621 203.479 283.973 201.78C283.701 200.612 283.645 199.402 283.808 198.212V197.162L292.093 194.073L292.967 195.03C293.964 195.941 294.756 197.064 295.287 198.32C295.738 199.649 294.428 200.174 293.66 200.591L292.756 201.054L293.253 202.491L297.049 200.946L301.478 199.324L305.877 197.78L305.38 196.343C302.517 197.27 301.312 195.725 299.851 194.026L284.847 176.649L283.009 177.313ZM284.034 195.138L284.44 184.867L290.948 192.59L284.034 195.138ZM350.09 166.686L350.994 166.501L350.874 164.956C349.97 164.956 349.066 165.111 348.162 165.203L345.3 165.512L324.602 167.211L321.739 167.366L319.028 167.52L319.148 169.065H320.022C323.291 169.065 323.336 170.254 323.517 172.54L324.722 188.759C324.873 191.045 325.023 192.157 321.8 192.744L320.941 192.899L321.062 194.443C321.965 194.443 322.869 194.289 323.773 194.196L326.635 193.887L329.769 193.64L332.631 193.486L335.342 193.331L335.237 191.787H334.363C331.094 191.787 331.049 190.597 330.898 188.311L329.588 171.166C329.407 168.694 330.341 168.849 331.576 168.756L338.702 168.2C339.952 168.107 340.841 167.783 341.022 170.27L342.302 187.415C342.453 189.701 342.603 190.813 339.38 191.4L338.521 191.555L338.642 193.1C339.545 193.1 340.449 192.945 341.353 192.852L344.215 192.543L347.349 192.296L350.211 192.142L352.922 191.987L352.817 190.443H351.943C348.674 190.443 348.629 189.253 348.478 186.967L347.273 170.749C347.078 168.385 346.972 167.273 350.181 166.686H350.09ZM372.205 194.521C379.888 195.555 387.977 191.617 389.077 182.998C390.026 175.583 385.431 168.215 376.121 166.964C367.806 165.837 360.515 170.517 359.46 178.704C358.406 186.89 364.537 193.47 372.19 194.505L372.205 194.521ZM366.435 179.414C367.761 169.065 373.214 168.447 375.775 168.787C378.336 169.127 383.578 171.135 382.222 181.762C381.017 191.292 376.829 193.285 372.702 192.729C369.93 192.358 365.079 190.103 366.45 179.445L366.435 179.414ZM405.452 175.151L406.054 175.46C408.916 176.85 409.172 178.781 407.018 183.801C404.307 190.134 402.243 192.404 400.33 194.15C398.417 195.895 397.588 195.694 397.317 195.54C397.046 195.386 396.624 194.922 396.338 194.505C396.004 193.901 395.469 193.44 394.831 193.208C394.534 193.082 394.216 193.02 393.895 193.024C393.573 193.029 393.257 193.101 392.963 193.235C392.67 193.37 392.407 193.564 392.189 193.806C391.972 194.048 391.805 194.334 391.698 194.644C391.583 195.038 391.549 195.452 391.599 195.86C391.648 196.267 391.78 196.66 391.985 197.013C392.191 197.366 392.465 197.671 392.792 197.91C393.118 198.148 393.49 198.314 393.882 198.398C394.735 198.689 395.637 198.8 396.533 198.723C397.429 198.646 398.301 198.383 399.094 197.95C403.764 195.633 407.561 188.836 410.152 182.38L411.507 179.028C411.658 178.657 412.035 177.947 413.315 178.41L416.72 179.615C417.247 179.8 417.624 179.986 417.292 181.005L411.387 198.475C410.664 200.637 410.332 201.719 407.169 200.946L406.325 200.73L405.843 202.182C406.702 202.491 407.546 202.8 408.404 203.047C409.319 203.322 410.228 203.615 411.131 203.927L414.144 204.978C415.048 205.287 415.951 205.657 416.825 206.013C417.665 206.352 418.514 206.666 419.371 206.955L419.853 205.503L419.07 205.132C416.057 203.742 416.509 202.692 417.217 200.498L422.399 185.145C423.122 182.982 423.453 181.901 426.617 182.673L427.46 182.889L427.943 181.438C427.084 181.129 426.24 180.82 425.382 180.573C424.467 180.298 423.558 180.004 422.655 179.692L412.02 175.923L405.994 173.668L405.452 175.151ZM435.279 187.075L436.002 187.57C438.713 189.423 438.171 190.396 437.132 192.42L429.675 206.754C428.62 208.762 428.169 209.843 425.156 208.499L424.357 208.16L423.649 209.503L426.06 210.77L428.62 212.083L431.392 213.628L433.893 215.08L436.258 216.423L436.966 215.08L436.243 214.585C433.531 212.732 434.074 211.759 435.113 209.735L442.57 195.401C443.624 193.393 444.076 192.312 447.089 193.656L447.888 193.995L448.596 192.652L446.185 191.385L443.624 190.072L440.853 188.527L438.367 187.075L436.002 185.732L435.279 187.075ZM451.503 220.316C450.177 222.169 449.545 223.096 446.758 221.366L446.005 220.903L445.101 222.139L447.3 223.683L449.65 225.382L452.181 227.282L454.441 229.089L456.595 230.789L457.499 229.553L456.851 228.966C454.41 226.726 455.088 225.877 456.399 223.992L466.763 209.55C467.411 208.623 467.547 208.252 468.661 209.086C472.277 211.82 472.729 214.431 471.493 217.01L471.102 217.814L472.397 218.787L476.585 212.407L469.414 207.156L463.283 202.522L456.248 197.069L451.578 203.062L452.874 204.035L453.507 203.418C455.54 201.456 458.026 201.101 461.732 203.835C462.831 204.669 462.515 204.916 461.882 205.843L451.503 220.316ZM482.566 225.506L471.117 236.751C469.505 238.295 468.737 239.145 466.266 236.952L465.618 236.365L464.564 237.415L468.481 241.431L480.713 254.684L482.415 252.908C483.637 251.634 484.952 250.457 486.347 249.386L485.292 248.258C481.119 251.687 477.76 248.753 476.254 247.208C473.919 244.706 473.452 243.115 476.962 239.639L480.728 235.994L481.406 236.72C481.853 237.123 482.21 237.62 482.452 238.178C482.694 238.735 482.816 239.34 482.809 239.95C482.802 240.561 482.666 241.162 482.411 241.714C482.155 242.265 481.787 242.754 481.33 243.146L482.385 244.273L486.121 240.412L490.037 236.751L488.983 235.623C488.583 236.075 488.092 236.433 487.543 236.672C486.995 236.912 486.403 237.026 485.808 237.009C485.213 236.991 484.628 236.842 484.094 236.57C483.561 236.299 483.091 235.913 482.716 235.438L482.038 234.712L487.718 229.12C489.103 227.761 489.224 227.576 490.429 228.966L491.032 229.584C492.87 231.561 495.747 234.866 492.613 238.697L493.773 239.933L498.564 234.774L487.296 222.88C485.97 221.459 487.296 222.726 483.53 218.679L482.475 219.729L483.018 220.424C485.127 223.05 484.223 223.791 482.611 225.367L482.566 225.506ZM499.89 261.249C491.062 259.951 487.718 260.631 485.157 257.634L483.921 258.484L486.271 261.851C487.175 263.164 488.938 266.068 489.631 267.195L490.866 266.346L490.565 265.774C489.962 264.585 489.616 263.674 490.565 262.994C490.896 262.778 492.071 261.99 498.473 262.994L499.227 263.118L497.223 269.574C497.064 270.433 496.667 271.227 496.078 271.86C495.024 272.571 494.376 271.335 493.638 270.439L493.156 269.852L491.921 270.702L494.286 274.1L495.596 276L497.103 278.27C498.015 279.678 498.899 281.104 499.754 282.549L500.989 281.7C499.784 279.568 500.567 278.023 501.14 276.293L505.147 263.813C512.679 264.709 516.656 263.813 519.458 267.103L520.693 266.253L517.53 261.619C516.731 260.476 515.647 258.654 515.029 257.572L513.794 258.422L514.14 259.102C514.442 259.689 515.376 261.063 514.14 261.882C513.357 262.423 511.82 262.608 507.211 262.16L505.795 262.005L507.452 256.985C508.25 254.591 508.883 253.896 509.305 253.68C510.284 253.016 510.932 254.298 511.534 255.07L511.896 255.533L513.131 254.684L510.299 250.575L508.792 248.336L507.663 246.544C507 245.54 506.156 243.995 505.493 242.991L504.258 243.841C505.222 246.312 504.65 247.393 503.897 249.556L499.89 261.249ZM502.932 285.345L502.526 284.573L501.17 285.16L502.224 287.708L503.384 290.396L504.59 293.377L505.614 296.126L506.608 298.706L507.964 298.119L507.708 297.269C506.759 294.057 507.783 293.67 509.847 292.79L516.475 289.979L520.995 301.131L514.366 303.942C512.302 304.823 511.353 305.286 509.757 302.398L509.35 301.625L507.964 302.212L509.018 304.761L510.178 307.449L511.384 310.43L512.408 313.179L513.402 315.759L514.758 315.172L514.502 314.322C513.553 311.109 514.577 310.723 516.641 309.843L531.283 303.664C533.347 302.784 534.296 302.32 535.878 305.209L536.285 305.981L537.641 305.394L536.586 302.846L535.426 300.158L534.221 297.192L533.197 294.443L532.202 291.863L530.847 292.45L531.103 293.3C532.052 296.513 531.027 296.899 528.964 297.779L522.757 300.405L518.238 289.253L524.444 286.627C526.508 285.746 527.457 285.283 529.039 288.172L529.446 288.944L530.801 288.357L529.747 285.808L528.587 283.121L527.382 280.155L526.357 277.405L525.363 274.826L524.007 275.413L524.264 276.262C525.213 279.475 524.188 279.861 522.124 280.742L507.482 286.92C505.433 287.847 504.439 288.311 502.902 285.345H502.932ZM521.552 329.521L536.993 325.891C539.177 325.382 540.232 325.088 541.271 328.27L541.542 329.12L543.049 328.78L542.401 326.077L541.678 323.235L540.985 320.145L540.412 317.272L539.855 314.554L538.349 314.894L538.469 315.774C538.891 319.095 537.806 319.327 535.607 319.821L520.166 323.451C517.982 323.961 516.927 324.254 515.888 321.072L515.617 320.223L514.11 320.562L514.758 323.266L515.481 326.108L516.174 329.197L516.746 332.07L517.304 334.788L518.81 334.449L518.69 333.568C518.268 330.216 519.353 330.046 521.552 329.521Z" fill="black"/>
<path d="M539.991 356.135C536.827 355.116 534.417 354.436 534.176 351.038L534.025 349.107L540.352 348.644C542.582 348.489 543.666 348.366 544.209 351.733L544.359 352.614L545.866 352.505C545.866 351.579 545.745 350.652 545.64 349.725L545.338 346.79L545.112 343.577L544.992 340.643L544.841 337.862L543.335 337.97V338.851C543.245 342.203 542.16 342.249 539.93 342.404L524.113 343.547C521.883 343.701 520.799 343.825 520.241 340.457L520.091 339.577L518.584 339.685C518.584 340.612 518.705 341.539 518.81 342.465L519.081 345.4L519.307 348.613L519.428 351.548L519.579 354.328L521.085 354.22V353.401C521.175 350.049 522.26 350.003 524.489 349.849L532.022 349.308L532.127 350.745C532.248 352.444 531.871 353.834 528.903 355.255L525.182 357.108C522.772 358.282 519.548 359.858 519.91 364.94C519.943 366.165 520.365 367.346 521.113 368.302C521.861 369.259 522.893 369.938 524.053 370.238L524.61 368.693C523.917 368.338 523.375 367.983 523.33 367.148C523.239 365.789 524.987 364.677 525.8 364.183C531.283 360.568 533.182 358.082 533.588 355.116H533.709C534.251 356.089 535.215 357.124 538.77 358.36C540.277 358.854 542.461 359.441 542.567 360.908C542.567 361.464 542.205 361.989 541.934 362.607C541.744 363.055 541.656 363.541 541.678 364.028C541.675 364.379 541.743 364.725 541.877 365.047C542.011 365.369 542.209 365.659 542.459 365.899C542.708 366.138 543.003 366.322 543.324 366.439C543.646 366.556 543.989 366.603 544.329 366.577C545.836 366.469 547.161 365.403 546.98 362.916C546.649 358.437 542.823 357.124 539.93 356.166L539.991 356.135ZM522.064 372.122L520.558 371.968C520.516 373.347 520.406 374.724 520.226 376.092L519.503 381.714L521.01 381.869L521.266 380.942C521.642 379.614 521.959 378.594 523.706 378.78C524.849 379.042 525.932 379.525 526.9 380.201L527.804 380.71L526.824 389.669L525.619 390.055C524.383 390.573 523.052 390.81 521.718 390.75C520.362 390.596 520.467 389.206 520.452 388.279V387.229L518.946 387.074L518.614 391.245L518.373 393.484L518.072 396.049L517.439 400.682L518.946 400.837C519.398 397.748 521.251 397.377 523.465 396.775L545.459 390.503L545.67 388.542L527.05 377.961C524.384 376.494 522.335 375.443 522.079 372.153L522.064 372.122ZM529.596 381.699L538.409 386.595L528.723 389.159L529.596 381.699ZM227.452 493.345L225.494 491.43L223.535 489.344C223.337 489.424 223.172 489.571 223.068 489.761C223.307 490.051 223.528 490.356 223.731 490.673C224.002 491.136 223.882 491.383 223.43 491.847L220.628 494.781L217.073 498.288C216.955 498.434 216.789 498.532 216.607 498.563C216.424 498.594 216.236 498.557 216.079 498.458C215.718 498.216 215.371 497.953 215.039 497.67C214.934 497.67 214.587 497.979 214.587 498.133L216.741 500.249L220.628 504.389C221.125 504.899 221.381 504.976 221.532 504.914C222.671 504.488 223.754 503.917 224.756 503.215C224.754 503.096 224.73 502.979 224.683 502.87C224.637 502.761 224.569 502.663 224.484 502.582C223.651 502.913 222.788 503.162 221.908 503.323C221.679 503.394 221.436 503.398 221.204 503.335C220.973 503.273 220.763 503.145 220.598 502.968C219.857 502.283 219.182 501.528 218.579 500.713C218.544 500.591 218.54 500.462 218.566 500.338C218.592 500.214 218.649 500.098 218.73 500.002L222.255 496.295L225.147 493.438C225.554 493.082 225.69 492.943 226.111 493.175C226.398 493.372 226.674 493.583 226.94 493.808C227.091 493.762 227.452 493.438 227.452 493.345ZM239.308 504.466L237.169 502.674L235.09 500.759C234.892 500.859 234.737 501.029 234.653 501.238C234.942 501.517 235.199 501.827 235.421 502.165C235.647 502.52 235.527 502.783 235.24 503.184C234.683 503.956 233.93 504.852 232.725 506.273L229.441 510.135C228.989 510.598 228.763 510.691 228.266 510.413L227.422 509.888C227.301 509.888 226.97 510.259 227.015 510.382L229.32 512.313L231.429 514.228C231.617 514.124 231.773 513.969 231.881 513.78L231.128 512.823C230.766 512.328 230.977 511.989 231.278 511.587L234.291 507.926L236.958 504.837C237.47 504.327 237.59 504.219 238.012 504.404C238.322 504.572 238.619 504.763 238.901 504.976C239.078 504.853 239.211 504.674 239.278 504.466H239.308ZM251.736 514.197L245.8 509.842C245.318 509.493 244.9 509.058 244.565 508.559C244.565 508.559 244.369 508.467 244.354 508.559C243.617 509.448 242.848 510.308 242.049 511.139C242.049 511.293 242.426 511.695 242.501 511.711C243.025 511.307 243.585 510.955 244.173 510.66C244.333 510.541 244.526 510.477 244.723 510.477C244.921 510.477 245.113 510.541 245.273 510.66C245.918 511.086 246.541 511.545 247.141 512.035V512.22L241.808 519.758C241.251 520.484 240.965 520.685 240.392 520.422C239.975 520.244 239.572 520.033 239.187 519.789C239.037 519.789 238.796 520.16 238.811 520.314L241.522 522.214L244.008 524.129C244.158 524.129 244.46 523.759 244.46 523.666C244.112 523.354 243.785 523.018 243.48 522.662C243.179 522.291 243.285 521.936 243.586 521.426L249.009 513.58C249.026 513.551 249.051 513.529 249.081 513.515C249.11 513.502 249.143 513.497 249.175 513.502L251.208 515.047C251.348 515.159 251.451 515.313 251.502 515.487C251.554 515.661 251.551 515.847 251.495 516.02C251.31 516.618 251.052 517.188 250.726 517.719C250.873 517.91 251.073 518.05 251.299 518.121C252.047 517.208 252.847 516.342 253.694 515.526C253.71 515.492 253.718 515.455 253.718 515.418C253.718 515.38 253.71 515.343 253.694 515.31C252.977 515.083 252.315 514.704 251.751 514.197H251.736ZM268.638 524.392C267.933 524.258 267.262 523.98 266.664 523.573L260.337 519.835C259.822 519.541 259.363 519.154 258.982 518.692H258.756L256.707 521.503C256.707 521.658 257.129 522.013 257.219 522.029C257.685 521.577 258.189 521.168 258.726 520.808C258.875 520.675 259.063 520.594 259.261 520.578C259.458 520.561 259.656 520.609 259.825 520.716C260.383 520.994 261.512 521.673 261.814 521.89V522.075L257.294 530.107C256.812 530.879 256.541 531.127 255.939 530.91C255.505 530.774 255.082 530.604 254.673 530.401C254.523 530.401 254.327 530.818 254.372 530.957L257.234 532.501L259.901 534.154C260.051 534.154 260.307 533.737 260.277 533.629C259.903 533.354 259.545 533.054 259.208 532.733C258.906 532.393 258.952 532.038 259.208 531.497L263.847 523.125C263.862 523.097 263.883 523.073 263.91 523.057C263.936 523.04 263.967 523.032 263.998 523.033L266.167 524.315C266.318 524.412 266.434 524.556 266.502 524.724C266.569 524.893 266.584 525.079 266.544 525.257C266.416 525.872 266.214 526.469 265.941 527.033C266.108 527.21 266.324 527.329 266.559 527.373C267.212 526.389 267.921 525.445 268.683 524.546C268.688 524.514 268.686 524.481 268.679 524.449C268.671 524.417 268.657 524.387 268.638 524.361V524.392ZM280.177 530.385L276.532 528.686L273.971 527.419C273.85 527.419 273.639 527.852 273.699 527.991C274.007 528.179 274.304 528.385 274.588 528.609C274.935 528.918 274.95 529.119 274.739 529.736C274.528 530.354 273.865 531.822 273.232 533.382L271.199 537.923C270.867 538.587 270.626 538.695 270.205 538.618C269.694 538.512 269.191 538.373 268.698 538.201C268.574 538.376 268.486 538.576 268.442 538.788L271.605 540.178L276.547 542.557C277.405 542.958 277.556 542.897 277.722 542.711C278.45 542.017 279.111 541.251 279.695 540.425C279.578 540.212 279.406 540.036 279.198 539.915C278.683 540.412 278.112 540.842 277.496 541.197C276.923 541.476 276.652 541.506 275.839 541.197C274.991 540.826 274.17 540.393 273.383 539.9C273.28 539.788 273.214 539.646 273.195 539.493C273.176 539.34 273.205 539.185 273.278 539.05L274.784 535.498C274.784 535.498 274.935 535.343 274.965 535.374L277.481 536.579C277.623 536.662 277.737 536.788 277.807 536.94C277.877 537.092 277.9 537.263 277.872 537.429C277.872 537.691 277.872 537.738 277.691 538.278C277.883 538.441 278.121 538.539 278.369 538.556L279.123 536.749C279.397 536.153 279.699 535.571 280.026 535.004C279.854 534.815 279.627 534.691 279.379 534.648L278.927 535.266C278.806 535.421 278.415 535.73 277.993 535.575L275.402 534.432C275.381 534.403 275.37 534.368 275.37 534.332C275.37 534.296 275.381 534.26 275.402 534.231L277.059 530.416C277.059 530.323 277.3 530.138 277.45 530.169C278.355 530.549 279.245 530.967 280.117 531.42C280.306 531.495 280.464 531.634 280.565 531.814C280.667 531.993 280.705 532.203 280.674 532.409C280.649 532.884 280.553 533.353 280.388 533.799C280.581 533.947 280.81 534.038 281.051 534.061C281.482 533.165 281.985 532.307 282.557 531.497V531.343C281.756 531.065 280.972 530.74 280.207 530.37L280.177 530.385ZM297.2 540.302C297.772 538.603 296.959 536.842 294.639 536.054L291.264 534.942L288.854 534.015C288.734 534.015 288.583 534.478 288.583 534.633C288.913 534.784 289.235 534.955 289.547 535.143C289.939 535.39 289.999 535.683 289.848 536.255L288.462 540.518L286.956 544.843C286.73 545.383 286.474 545.708 286.007 545.646L285.028 545.492C284.907 545.492 284.772 546.001 284.832 546.109L287.468 546.959L290.15 547.963C290.27 547.963 290.451 547.422 290.391 547.345L289.396 546.789C289.095 546.604 288.944 546.279 289.14 545.677L290.24 542.232C290.24 542.232 290.24 542.14 290.345 542.232C290.451 542.325 291.099 542.464 291.279 542.541C291.381 542.587 291.471 542.655 291.544 542.74C291.617 542.826 291.671 542.926 291.701 543.036L292.906 547.669C293.044 548.095 293.27 548.485 293.569 548.813C294.575 549.536 295.704 550.06 296.898 550.357C297.004 550.357 297.245 549.847 297.2 549.77C296.817 549.643 296.467 549.428 296.178 549.142C295.888 548.855 295.666 548.505 295.528 548.117C294.813 546.399 294.258 544.614 293.87 542.788V542.665C294.601 542.687 295.319 542.468 295.918 542.04C296.518 541.611 296.967 540.997 297.2 540.286V540.302ZM293.027 541.846C292.219 541.794 291.428 541.59 290.692 541.244V541.089L292.274 536.456C292.318 536.348 292.398 536.261 292.5 536.208C292.71 536.225 292.917 536.266 293.117 536.332C293.494 536.426 293.846 536.605 294.147 536.857C294.448 537.108 294.69 537.425 294.856 537.785C295.022 538.145 295.108 538.538 295.107 538.936C295.106 539.334 295.018 539.727 294.85 540.085C294.398 541.321 293.75 541.754 293.042 541.846H293.027ZM305.636 539.406C305.567 539.491 305.516 539.59 305.485 539.696C305.454 539.802 305.444 539.913 305.455 540.024C305.832 540.142 306.196 540.303 306.54 540.502C306.886 540.719 306.916 541.028 306.841 541.491C306.69 542.418 306.389 543.576 305.967 545.43L304.732 550.373C304.536 550.99 304.37 551.191 303.798 551.145L302.773 551.114C302.704 551.201 302.654 551.304 302.628 551.413C302.602 551.523 302.6 551.637 302.623 551.747L305.53 552.412L308.242 553.184C308.367 553.002 308.44 552.788 308.453 552.566L307.368 552.056C306.826 551.778 306.871 551.377 306.961 550.882L308.016 546.248L309.01 542.232C309.221 541.506 309.311 541.367 309.763 541.337C310.112 541.34 310.459 541.371 310.803 541.429C310.925 541.243 310.978 541.019 310.953 540.796L308.242 540.178L305.591 539.406H305.636ZM317.19 545.492C316.889 547.469 318.049 548.658 319.645 550.002C321.242 551.346 321.785 552.133 321.604 553.277C321.57 553.53 321.486 553.774 321.355 553.993C321.224 554.211 321.051 554.399 320.845 554.544C320.639 554.69 320.406 554.79 320.161 554.837C319.915 554.885 319.663 554.879 319.42 554.821C318.746 554.734 318.115 554.438 317.612 553.972C316.917 553.16 316.513 552.131 316.467 551.052C316.353 551.023 316.234 551.018 316.117 551.037C316.001 551.055 315.889 551.097 315.789 551.16C315.71 552.238 315.751 553.321 315.91 554.389C316.769 554.979 317.747 555.365 318.772 555.516C321.785 555.98 323.622 554.497 323.939 552.427C324.036 551.759 323.946 551.076 323.679 550.458C323.412 549.84 322.98 549.312 322.432 548.936L320.323 547.144C319.984 546.898 319.715 546.564 319.543 546.176C319.371 545.787 319.302 545.36 319.344 544.936C319.384 544.685 319.473 544.445 319.605 544.23C319.737 544.015 319.911 543.83 320.115 543.685C320.319 543.541 320.549 543.441 320.792 543.39C321.035 543.339 321.286 543.34 321.528 543.391C322.091 543.447 322.621 543.691 323.035 544.086C323.487 544.472 323.577 545.105 323.547 546.372C323.547 546.372 324.105 546.526 324.18 546.372C324.393 545.401 324.654 544.442 324.963 543.499C323.949 543.148 322.912 542.869 321.86 542.665C319.6 542.248 317.536 543.206 317.19 545.492ZM350.482 556.458C350.06 556.953 349.819 557.076 348.976 557.076C348.053 557.082 347.131 557.015 346.219 556.876C346.082 556.817 345.967 556.714 345.891 556.584C345.815 556.453 345.782 556.301 345.797 556.15V552.242C345.797 552.242 345.797 552.056 345.918 552.056L348.704 552.149C348.866 552.167 349.018 552.236 349.139 552.347C349.261 552.458 349.346 552.604 349.382 552.767C349.382 553.029 349.382 553.076 349.533 553.616C349.773 553.698 350.031 553.698 350.271 553.616V551.655C350.271 551.006 350.377 550.11 350.422 549.678C350.182 549.597 349.923 549.597 349.684 549.678C349.684 549.956 349.533 550.249 349.503 550.45C349.473 550.651 349.202 551.068 348.75 551.099H345.933C345.933 551.099 345.812 551.021 345.812 550.944L345.887 546.743C345.887 546.65 345.993 546.387 346.144 546.357C346.294 546.326 348.629 546.357 349.156 546.357C349.36 546.351 349.559 546.416 349.721 546.543C349.882 546.669 349.997 546.849 350.045 547.052C350.207 547.497 350.298 547.967 350.316 548.442C350.548 548.508 350.793 548.508 351.024 548.442C351.069 547.449 351.195 546.462 351.401 545.492C351.401 545.492 351.401 545.383 351.326 545.383C350.523 545.43 349.718 545.43 348.915 545.383L344.923 545.306C343.869 545.306 342.724 545.183 342.061 545.152C342.012 545.25 341.987 545.358 341.987 545.468C341.987 545.579 342.012 545.687 342.061 545.785C342.411 545.834 342.758 545.901 343.101 545.986C343.552 546.14 343.643 546.295 343.673 546.974V550.99L343.522 555.98C343.462 556.721 343.296 556.906 342.875 557.015C342.377 557.119 341.874 557.191 341.368 557.231C341.323 557.445 341.323 557.666 341.368 557.88H344.788L350.256 558.065C351.205 558.065 351.311 557.957 351.401 557.756C351.809 556.822 352.127 555.849 352.35 554.852C352.16 554.708 351.937 554.617 351.702 554.589C351.369 555.272 350.948 555.905 350.452 556.474L350.482 556.458ZM369.162 544.179C368.511 544.475 367.809 544.632 367.098 544.642L359.822 545.198C359.235 545.251 358.644 545.199 358.074 545.044C358.036 545.035 357.997 545.04 357.962 545.057C357.926 545.073 357.897 545.101 357.879 545.136L357.728 548.627C357.728 548.751 358.361 548.813 358.436 548.782C358.583 548.125 358.79 547.484 359.054 546.866C359.105 546.67 359.215 546.495 359.37 546.367C359.524 546.239 359.714 546.165 359.912 546.156C360.672 546.058 361.436 546.001 362.202 545.986C362.202 545.986 362.307 546.079 362.307 546.14L362.91 555.408C362.91 556.335 362.91 556.675 362.247 556.845C361.819 556.982 361.381 557.086 360.937 557.154C360.885 557.254 360.858 557.365 360.858 557.478C360.858 557.591 360.885 557.702 360.937 557.802C361.539 557.802 362.533 557.617 364.191 557.493L367.294 557.339C367.34 557.237 367.363 557.127 367.363 557.015C367.363 556.903 367.34 556.792 367.294 556.69C366.835 556.681 366.377 556.64 365.923 556.567C365.471 556.474 365.32 556.134 365.245 555.563L364.492 545.986C364.487 545.953 364.491 545.92 364.505 545.889C364.518 545.859 364.54 545.834 364.567 545.816C364.959 545.816 366.284 545.662 367.068 545.631C367.245 545.624 367.42 545.674 367.568 545.774C367.716 545.873 367.831 546.018 367.896 546.187C368.132 546.765 368.295 547.373 368.378 547.994C368.604 548.067 368.846 548.067 369.071 547.994C369.072 546.801 369.142 545.61 369.282 544.426C369.276 544.384 369.261 544.344 369.237 544.309C369.214 544.274 369.183 544.246 369.147 544.225L369.162 544.179ZM397.513 549.23L392.346 541.244L391.788 540.224L390.99 540.456C390.628 540.549 390.327 540.611 390.146 540.611C390.188 541.068 390.188 541.528 390.146 541.985L388.971 551.469C388.745 553.014 388.519 553.23 387.164 553.786C387.141 554.009 387.194 554.233 387.314 554.42L389.423 553.833L391.924 553.277C391.951 553.168 391.958 553.054 391.942 552.943C391.927 552.832 391.89 552.724 391.833 552.628H390.839C390.267 552.628 390.191 552.381 390.116 552.072C390.1 551.037 390.175 550.003 390.342 548.982C390.342 548.874 390.417 548.751 390.493 548.735L392.09 548.334L393.777 547.917C393.777 547.917 393.958 547.917 393.988 548.009C394.5 548.751 395.404 550.172 395.765 550.882C395.796 550.922 395.818 550.967 395.83 551.016C395.842 551.065 395.844 551.116 395.836 551.166C395.827 551.216 395.808 551.263 395.781 551.304C395.753 551.346 395.717 551.381 395.675 551.408C395.37 551.589 395.053 551.749 394.726 551.886C394.726 551.979 394.726 552.427 394.876 552.504L397.618 551.763L400.254 551.176C400.298 550.955 400.266 550.726 400.164 550.527C398.597 550.651 398.462 550.558 397.498 549.214L397.513 549.23ZM393.159 546.944C392.963 546.944 392.406 547.144 391.849 547.283L390.493 547.592C390.282 547.623 390.402 547.592 390.402 547.469L390.794 543.082H390.899L393.204 546.789C393.159 546.82 393.159 546.913 393.159 546.944ZM415.756 544.117C414.159 543.234 412.646 542.199 411.236 541.028V540.904C411.796 540.466 412.209 539.861 412.42 539.172C412.63 538.484 412.627 537.745 412.411 537.058C411.809 535.359 410.152 534.494 407.892 535.312L404.578 536.579L402.137 537.382C402.047 537.382 402.137 537.907 402.288 538C402.64 537.906 402.997 537.834 403.358 537.784C403.81 537.784 404.036 537.938 404.261 538.479L405.768 542.711L407.274 547.036C407.515 547.577 407.425 548.009 407.003 548.272L406.145 548.735C406.145 548.843 406.25 549.291 406.355 549.353L408.916 548.365L411.628 547.469C411.703 547.376 411.538 546.851 411.477 546.851L410.363 547.036C410.001 547.083 409.715 546.913 409.504 546.326L408.299 542.928V542.804L409.203 542.464C409.31 542.435 409.423 542.432 409.532 542.453C409.642 542.474 409.745 542.52 409.835 542.588L413.541 545.476C413.902 545.727 414.314 545.891 414.746 545.955C415.975 545.893 417.181 545.594 418.301 545.075C418.346 544.849 418.315 544.615 418.211 544.41C417.81 544.563 417.379 544.615 416.954 544.562C416.529 544.508 416.123 544.35 415.771 544.101L415.756 544.117ZM410.061 540.873C409.395 541.345 408.649 541.685 407.862 541.877C407.862 541.877 407.756 541.877 407.711 541.784L406.205 537.151C406.166 537.041 406.166 536.92 406.205 536.811C406.382 536.688 406.575 536.589 406.777 536.517C407.131 536.354 407.516 536.274 407.904 536.283C408.292 536.292 408.673 536.389 409.019 536.568C409.366 536.747 409.669 537.004 409.906 537.318C410.144 537.633 410.31 537.998 410.393 538.386C410.592 538.784 410.67 539.234 410.616 539.677C410.562 540.121 410.379 540.538 410.091 540.873H410.061ZM429.163 539.066C428.711 539.066 428.455 538.881 428.184 538.371L424.222 529.659C424.204 529.632 424.195 529.599 424.195 529.566C424.195 529.534 424.204 529.501 424.222 529.474L426.481 528.393C426.646 528.324 426.827 528.31 426.999 528.352C427.172 528.393 427.328 528.488 427.445 528.624C427.859 529.091 428.214 529.61 428.5 530.169C428.737 530.137 428.959 530.029 429.133 529.86C428.729 528.744 428.392 527.604 428.123 526.446C428.09 526.431 428.054 526.423 428.018 526.423C427.981 526.423 427.946 526.431 427.912 526.446C427.402 526.952 426.798 527.346 426.135 527.605L419.507 530.694C418.976 530.955 418.405 531.117 417.819 531.173C417.729 531.173 417.639 531.296 417.669 531.327L418.723 534.648C418.814 534.756 419.371 534.648 419.431 534.525C419.37 533.857 419.37 533.185 419.431 532.517C419.414 532.315 419.458 532.113 419.558 531.939C419.658 531.764 419.809 531.626 419.989 531.544C420.665 531.178 421.359 530.848 422.067 530.555C422.067 530.555 422.188 530.555 422.218 530.663L425.984 539.159C426.331 540.024 426.361 540.394 425.834 540.703C425.477 540.986 425.099 541.239 424.704 541.46C424.699 541.573 424.721 541.686 424.768 541.788C424.816 541.89 424.886 541.979 424.975 542.047L427.988 540.58L430.85 539.313C430.925 539.205 430.76 538.726 430.654 538.695C430.181 538.853 429.698 538.977 429.208 539.066H429.163ZM443.203 531.497C442.63 531.683 442.389 531.343 442.118 530.926L439.783 526.786L437.825 523.156C437.493 522.477 437.463 522.353 437.825 521.982C438.085 521.74 438.362 521.518 438.653 521.318C438.612 521.101 438.501 520.905 438.337 520.762L435.972 522.199L433.516 523.558C433.524 523.67 433.553 523.78 433.602 523.881C433.651 523.982 433.719 524.071 433.803 524.145C434.159 523.966 434.532 523.826 434.917 523.728C435.324 523.635 435.52 523.836 435.791 524.237L437.795 527.728L440.205 532.208C440.476 532.826 440.506 533.042 440.054 533.443L439.301 534.061C439.301 534.169 439.497 534.602 439.602 534.617L442.163 533.073L444.634 531.713C444.603 531.497 444.514 531.294 444.378 531.127L443.203 531.497ZM452.994 517.704C452.994 517.704 452.904 517.704 452.994 517.611C453.387 517.155 453.627 516.582 453.679 515.976C453.73 515.37 453.591 514.762 453.281 514.244C451.955 512.236 449.967 513.101 448.611 514.043L445.854 516.051L443.685 517.487C443.745 517.699 443.866 517.887 444.031 518.028C444.352 517.821 444.696 517.655 445.056 517.534C445.387 517.426 445.628 517.534 445.959 517.935L448.52 521.72L451.006 525.519C451.307 526.045 451.337 526.369 451.006 526.663C450.722 527.009 450.404 527.324 450.057 527.605C450.105 527.818 450.228 528.005 450.403 528.13L454.652 525.272C455.595 524.662 456.409 523.863 457.047 522.925C457.509 522.306 457.77 521.554 457.792 520.774C457.813 519.995 457.595 519.229 457.167 518.584C456.701 517.933 456.016 517.484 455.244 517.324C454.472 517.164 453.67 517.305 452.994 517.719V517.704ZM449.786 519.619L447.526 516.159C447.526 516.066 447.451 515.896 447.526 515.85C447.662 515.7 447.813 515.565 447.978 515.449C448.24 515.191 448.555 514.997 448.9 514.884C449.246 514.77 449.612 514.739 449.971 514.792C450.33 514.846 450.673 514.983 450.972 515.193C451.271 515.403 451.52 515.681 451.699 516.005C451.917 516.279 452.061 516.609 452.114 516.959C452.166 517.309 452.127 517.668 452 517.997C451.697 518.422 451.312 518.779 450.87 519.048C450.564 519.265 450.247 519.466 449.921 519.65C449.898 519.665 449.871 519.672 449.843 519.669C449.816 519.667 449.79 519.654 449.771 519.634L449.786 519.619ZM454.908 524.098C454.49 524.394 453.999 524.561 453.492 524.577C453.218 524.539 452.967 524.402 452.784 524.191C452.226 523.481 451.036 521.627 450.283 520.484C450.268 520.461 450.26 520.434 450.26 520.407C450.26 520.379 450.268 520.352 450.283 520.33C450.495 520.153 450.716 519.988 450.946 519.835C452.693 518.6 454.29 518.816 455.314 520.36C455.56 520.617 455.748 520.927 455.862 521.268C455.977 521.608 456.016 521.971 455.977 522.329C455.938 522.687 455.822 523.031 455.637 523.337C455.452 523.643 455.203 523.903 454.908 524.098ZM466.748 502.937C466.447 501.825 466.296 501.392 466.597 500.775C466.759 500.487 466.957 500.222 467.185 499.987C467.118 499.778 466.979 499.602 466.793 499.492L465.106 501.037C464.202 501.84 463.449 502.365 463.178 502.582C463.233 502.8 463.354 502.995 463.524 503.138C463.86 502.909 464.207 502.697 464.564 502.505C465.091 502.242 465.392 502.505 465.648 503.169C466.281 504.713 467.908 509.749 468.209 510.892L468.134 510.985L460.602 506.66C460.346 506.505 460.24 506.304 460.376 506.073C460.559 505.754 460.771 505.454 461.009 505.177C461.009 505.069 460.707 504.667 460.587 504.713C460.466 504.76 459.427 505.795 458.478 506.613L456.324 508.359C456.324 508.359 456.55 508.853 456.685 508.884C456.941 508.707 457.214 508.557 457.499 508.436C458.101 508.127 458.523 508.281 459.758 508.961L466.387 512.745L468.872 514.29C469.223 513.935 469.6 513.61 470.002 513.317C469.746 512.73 469.399 511.772 468.978 510.382L466.718 502.922L466.748 502.937ZM478.92 495.615L476.254 496.311C475.836 496.456 475.388 496.478 474.959 496.374C474.53 496.27 474.138 496.045 473.828 495.724C473.645 495.547 473.499 495.334 473.399 495.098C473.299 494.861 473.247 494.607 473.247 494.349C473.247 494.091 473.299 493.836 473.399 493.6C473.499 493.363 473.645 493.15 473.828 492.974C474.205 492.545 474.707 492.252 475.259 492.14C475.817 492.016 476.389 492.294 477.368 493.067C477.459 493.067 477.82 492.696 477.775 492.603C477.15 491.852 476.561 491.068 476.013 490.256C475.132 490.89 474.297 491.586 473.512 492.341C471.93 493.963 471.478 496.233 473.06 497.855C474.642 499.477 476.073 499.014 478.061 498.473C480.05 497.932 481.074 497.963 481.797 498.782C481.987 498.954 482.138 499.166 482.242 499.403C482.346 499.64 482.4 499.897 482.4 500.157C482.4 500.416 482.346 500.673 482.242 500.91C482.138 501.147 481.987 501.359 481.797 501.531C481.334 502.04 480.729 502.391 480.065 502.535C479.004 502.643 477.939 502.37 477.052 501.763C476.947 501.763 476.675 502.257 476.751 502.381C477.55 503.082 478.425 503.688 479.357 504.188C480.329 503.828 481.21 503.247 481.933 502.489C484.042 500.327 483.982 497.855 482.535 496.403C482.066 495.931 481.476 495.606 480.833 495.463C480.191 495.321 479.522 495.369 478.905 495.6L478.92 495.615Z" fill="black"/>
<path d="M263.266 258.056C264.176 257.205 264.24 255.759 263.41 254.826C262.58 253.894 261.169 253.828 260.26 254.679C259.351 255.53 259.286 256.976 260.116 257.909C260.947 258.841 262.357 258.907 263.266 258.056Z" fill="black"/>
<path d="M440.15 258.061C441.047 257.196 441.09 255.749 440.247 254.829C439.403 253.91 437.992 253.865 437.095 254.73C436.198 255.595 436.155 257.042 436.998 257.962C437.842 258.881 439.253 258.926 440.15 258.061Z" fill="black"/>
<path d="M200.141 395.014L200.291 395.91H207.04V367.118H197.625V370.485L199.659 368.755V392.697L200.156 395.014H200.141ZM201.316 368.755H205.458V394.272H201.316V368.755ZM209.902 362.329H197.7L197.625 365.758H209.917L209.902 362.329ZM234.562 395.91V367.118H221.216V395.91H234.562ZM228.838 368.755H232.996V394.272H228.838V368.755ZM224.439 371.35L227.226 368.77V394.288H224.439V371.35ZM218.911 362.329H237.44V365.758H218.911V362.329ZM204.148 411.974H209.164V410.769H213.533L201.285 400.621L202.159 404.482L206.679 408.267H203.138L204.148 411.974ZM475.726 395.91V367.118H462.379V395.91H475.726ZM470.002 368.755H474.145V394.272H469.987L470.002 368.755ZM465.633 371.334L467.893 368.755H468.405V394.272H465.618L465.633 371.334ZM460.06 362.329H478.589V365.758H460.06V362.329ZM500.372 394.272H497.509V368.755H501.622V385.591C502.352 379.441 502.724 373.252 502.737 367.056H489.872V395.848H500.116L500.372 394.272ZM495.852 394.272H493.065V371.35L495.355 368.77H495.867L495.852 394.272ZM502.737 365.758L502.646 362.329H487.582V365.758H502.737ZM502.029 351.548H446.773V350.312H501.938L501.366 345.678H468.224L471.78 342.033H500.854L500.507 340.071H449.59L451.096 330.541L448.264 330.232V326.447H447.014L455.827 307.062H458.387V300.328H446.336V287.6H447.722V284.511H445.266V283.151H440.747V284.511H438.081V285.082H410.483V284.511H408.028V283.151H403.508V284.511H401.053V285.082H384.482C384.482 283.63 384.331 279.892 383.669 280.248C381.436 281.037 379.004 280.993 376.799 280.124C376.799 280.124 374.886 273.142 370.774 273.389C368.86 275.166 364.175 276.324 364.175 276.324C363.691 276.276 363.222 276.128 362.794 275.889C362.367 275.65 361.992 275.325 361.69 274.934C363.618 273.312 364.356 268.447 360.183 268.956C357.442 269.852 358.315 272.972 358.315 272.972C358.315 272.972 357.035 273.436 355.529 276.17C356.372 272.215 351.702 267.736 350.527 267.412C350.045 265.635 353.615 263.627 348.78 261.619C344.622 263.519 347.454 265.172 347.273 267.134C346.324 266.423 343.658 264.261 342.603 265.126C341.549 265.991 341.218 268.833 341.218 268.833C341.218 268.833 342.98 277.884 342.332 278.255C342.123 277.593 341.724 277.011 341.186 276.586C340.648 276.162 339.997 275.914 339.319 275.876C339.048 275.212 342.106 271.814 338.717 270.377C334.544 270.377 336.337 275.629 336.337 275.629C336.337 275.629 332.571 277.714 331.817 277.483C331.064 277.251 327.946 271.567 326.922 271.922C325.054 272.586 325.973 275.938 324.15 278.95C321.924 280.281 319.372 280.924 316.798 280.804C315.443 280.804 315.443 283.738 315.488 284.974H298.917V284.403H296.477V283.043H291.957V284.403H289.502V284.974H261.648V284.403H259.193V283.043H254.673V284.403H252.188V287.492H253.574V298.768H251.555V300.312H238.901V307.062H241.251L252.7 326.417H248.994V331.05L252.609 336.719V340.087H199.885L199.538 342.033H252.64L252.549 345.678H199.041L198.468 350.312H252.459V351.548H198.378C198.378 352.196 198.288 352.845 198.227 353.494H252.459L250.802 419.295H248.843V421.365L244.671 422.817L242.019 426.787H245.032V437.599H258.982V439.406H242.411V443.191H234.984V417.195H236.732V410.753H241.01L228.733 400.59L215.024 410.661H219.664V417.179H221.321V446.527H242.411V454.822H228.251L230.54 458.096H242.396V461.186H232.905L233.779 462.329H242.396V469.048H239.383L240.392 470.191H242.411V472.384L245.424 475.628V473.743H260.006V484.216H254.734L256.089 485.359H260.081V497.871C285.899 516.605 316.658 526.854 348.285 527.259C379.911 527.665 410.911 518.208 437.177 500.141V485.375H444.257L445.613 484.232H437.177V473.759H453.251V477.219L453.401 477.064L454.606 475.891L459.231 470.979V470.639H459.532L461.25 468.677H459.231V462.344H466.522L467.396 461.201H459.231V458.112H469.776L472.111 454.791H459.276L462.47 446.527H477.384L479.342 443.206H476.013V417.195H477.775V410.753H482.114L469.836 400.559L459.141 408.406V353.401H502.074C502.098 352.778 502.078 352.153 502.014 351.532L502.029 351.548ZM228.657 403.694L234.231 408.328H222.481L228.657 403.694ZM221.276 415.588V411.989H235.09V415.588H221.276ZM227.301 443.268H225.042V420.562L227.332 417.349L227.301 443.268ZM233.327 443.268H228.959V417.349H233.327V443.268ZM434.36 368.848V346.759H430.82L432.959 344.566H438.352L437.674 371.226H418.542L420.862 368.848H434.36ZM421.405 365.573V350.034H431.166V365.588L421.405 365.573ZM439.482 344.921H442.871V419.064H437.599L439.482 344.921ZM418.964 367.303L417.563 368.724V345.956L418.964 344.52V367.303ZM419.989 373.173H437.584L436.83 400.821H433.11C432.834 398.653 431.82 396.654 430.245 395.179C428.671 393.703 426.639 392.846 424.508 392.758C423.129 392.775 421.775 393.135 420.563 393.808C419.35 394.48 418.316 395.446 417.548 396.62V375.644L419.989 373.173ZM434.45 421.458L433.245 421.89V404.003H436.861L436.469 419.141H434.511L434.45 421.458ZM448.792 423.651V424.887H431.392L431.633 424.532L434.465 423.667L448.792 423.651ZM426.301 404.884V396.311C427.486 396.811 428.493 397.672 429.188 398.776C429.883 399.88 430.231 401.176 430.187 402.49V404.93L426.301 404.884ZM430.187 408.158V423.188L428.681 425.397H426.301V408.158H430.187ZM422.083 404.884V404.374C422.083 400.204 423.468 398.196 424.387 397.315V404.93L422.083 404.884ZM424.387 408.158V425.412H422.083V408.158H424.387ZM430.594 427.111V428.532H411.959L410.182 427.111H430.594ZM429.78 430.509V435.807H428.274V430.494L429.78 430.509ZM426.436 430.509V435.807H425.005V430.494L426.436 430.509ZM423.092 430.509V435.807H421.661V430.494L423.092 430.509ZM419.748 430.509V435.807H418.332V430.494L419.748 430.509ZM414.43 430.509H416.388V435.807H414.43V430.556V430.509ZM413.677 437.877H450.84L452.497 439.422H412.125L413.677 437.877ZM450.84 435.807H432.582V428.285H450.84V435.807ZM448.761 420.886V421.967H436.107V420.886H448.761ZM446.457 339.252H439.467V336.41L436.273 331.066H447.873L446.457 339.252ZM439.075 285.623H446.457V286.488H439.075V285.623ZM445.101 287.631V298.907H440.581V287.631H445.101ZM437.93 287.631H439.527V295.091H437.93V287.631ZM435.008 287.013H436.815V295.045H435.008V287.013ZM432.07 287.013H433.878V295.045H432.07V287.013ZM429.359 287.013H430.94V295.045L429.359 296.343V287.013ZM422.037 287.585H426.557V298.86H422.037V287.585ZM419.356 287.013H420.862V295.045H419.356V287.013ZM416.418 287.013H418.226V295.045H416.418V287.013ZM413.481 287.013H415.289V295.045H413.481V287.013ZM410.769 287.013H412.351V295.045L410.769 296.343V287.013ZM403.418 287.585H407.937V298.86H403.418V287.585ZM371.783 287.585H373.169V286.967H400.887V287.538H402.273V298.814H371.798L371.783 287.585ZM366.209 287.585H370.728V298.86H366.209V287.585ZM334.574 287.585H335.93V286.967H363.724V287.538H365.079V298.814H334.589L334.574 287.585ZM329 287.585H333.52V298.86H329V287.585ZM297.365 287.585H298.751V286.967H326.47V287.538H327.856V298.814H297.426L297.365 287.585ZM291.792 287.585H296.311V298.86H291.792V287.585ZM289.035 287.013H289.306V287.585H290.692V295.045H289.035V287.013ZM286.173 287.013H287.98V295.045H286.203L286.173 287.013ZM283.16 287.013H284.968V295.045H283.19L283.16 287.013ZM280.509 287.013H282.015V295.107L280.509 296.343V287.013ZM273.187 287.585H277.707V298.86H273.187V287.585ZM270.476 287.013H272.073V295.045H270.566L270.476 287.013ZM267.553 287.013H269.361V295.045H267.553V287.013ZM264.616 287.013H266.423V295.045H264.661L264.616 287.013ZM261.904 287.013H263.606V295.045L262.025 296.343L261.904 287.013ZM253.197 286.442V285.577H260.594V286.442H253.197ZM259.042 287.585V298.86H254.523V287.585H259.042ZM252.218 299.664H445.041V300.39H252.218V299.664ZM239.91 305.966V301.533H457.212V305.966H239.91ZM446.667 318.323V326.54H252.866V318.323H446.667ZM250.049 327.637H447.165V329.954H250.049V327.637ZM378.592 485.189V483.181H384.618V477.744H378.592L381.725 474.531H386.395V515.727H378.607V500.898H384.633V485.22L378.592 485.189ZM374.148 463.255L373.997 463.564L368.574 460.63L361.901 463.564L361.75 463.255C360.471 460.78 358.719 458.595 356.598 456.83L363.181 450.497H374.208L379.541 456.953C377.364 458.691 375.55 460.861 374.208 463.333L374.148 463.255ZM361.901 506.505V497.052H373.952V506.675L361.901 506.505ZM373.952 508.142V515.634H361.901V508.142H373.952ZM361.901 495.785V485.313H373.952V495.785H361.901ZM361.901 484.17V473.697H373.952V484.17H361.901ZM361.901 472.554V464.831L368.529 461.927L373.952 464.862V472.585L361.901 472.554ZM350.392 485.143V483.15H356.417V477.713H350.392V474.5H359.43V515.696H350.392V500.914H356.417V485.236L350.392 485.143ZM340.178 471.55L342.965 468.693H359.415V471.55H340.178ZM323.11 506.613V497.052H335.162V506.675L323.11 506.613ZM335.162 508.251V515.742H323.11V508.251H335.162ZM323.11 495.893V485.421H335.162V495.893H323.11ZM323.11 484.278V473.805H335.162V484.278H323.11ZM323.11 472.662V464.939L329.226 462.004L335.177 464.939V472.662H323.11ZM329.257 460.738L323.11 463.703L322.96 463.394C321.628 460.805 319.774 458.536 317.521 456.737L323.848 450.559H334.891L340.434 457.278C338.379 458.936 336.651 460.98 335.342 463.302L335.192 463.611L329.257 460.738ZM311.586 485.251V483.243H317.537V477.806H311.586V474.593H320.625V515.788H311.586V500.883H317.537V485.205L311.586 485.251ZM301.373 471.658L304.159 468.801H320.61V471.658H301.373ZM323.216 368.817V346.728H319.706L321.86 344.535H326.681L326.003 371.195H307.443L309.778 368.832L323.216 368.817ZM310.26 365.542V350.003H320.052V365.558L310.26 365.542ZM360.274 368.817V346.728H356.779L358.918 344.535H363.739L363.061 371.18H344.502L346.837 368.817H360.274ZM347.319 365.542V350.003H357.005V365.558L347.319 365.542ZM364.899 342.929V341.137H371.934V342.929H364.899ZM338.039 439.36L339.786 437.553H370.126V439.36H338.039ZM352.531 442.635L350.151 454.003C349.804 454.003 349.458 453.91 349.096 453.91C348.735 453.91 348.343 453.91 347.951 454.003L345.571 442.635H352.531ZM340.359 430.37H342.317V435.854H340.434V430.401L340.359 430.37ZM344.245 435.854V430.447H345.662V435.931L344.245 435.854ZM347.56 435.854V430.447H349.066V435.931L347.56 435.854ZM350.904 435.854V430.447H352.335V435.931L350.904 435.854ZM354.248 435.854V430.447H355.679V435.931L354.248 435.854ZM357.833 435.854V427.976H370.126V435.854H357.833ZM356.779 424.763L357.005 424.423L360.018 423.419H370.156V424.779L356.779 424.763ZM358.978 421.411L359.159 403.895H362.172L361.78 419.156H360.018V421.133L358.978 421.411ZM361.389 421.952V420.608H370.126V421.952H361.389ZM362.895 419.172L364.793 344.829H370.096V419.172H362.895ZM364.853 339.113V336.302L361.66 330.958H371.949V339.098L364.853 339.113ZM344.953 367.303L343.553 368.724V345.956L344.953 344.52V367.303ZM345.963 373.173H363.031L362.323 400.852H359.099C358.823 398.684 357.809 396.685 356.235 395.21C354.66 393.734 352.628 392.877 350.497 392.789C349.103 392.791 347.731 393.144 346.502 393.817C345.272 394.49 344.223 395.464 343.447 396.651V375.675L345.963 373.173ZM352.29 404.884V396.296C353.475 396.796 354.483 397.656 355.177 398.76C355.872 399.865 356.221 401.161 356.176 402.474V404.915L352.29 404.884ZM356.131 408.158L355.981 422.678L354.173 425.397H352.26V408.143L356.131 408.158ZM347.996 404.868V404.374C347.996 400.204 349.382 398.196 350.316 397.315V404.93L347.996 404.868ZM350.316 408.143V425.397H347.966V408.143H350.316ZM356.191 427.096V428.517H337.873L336.096 427.096H356.191ZM344.441 442.743L346.852 454.25C344.879 454.63 343.006 455.43 341.353 456.598L335.433 449.431H323.381L316.527 456.042C315.006 455.042 313.288 454.398 311.496 454.158L313.906 442.758L344.441 442.743ZM319.766 424.871L320.007 424.516L323.02 423.512H333.173V424.871H319.766ZM333.113 428.069V435.946H320.851V428.069H333.113ZM322.116 421.581V404.003H325.204L324.828 419.264H322.96V421.365L322.116 421.581ZM324.376 422.076V420.732H333.113V422.076H324.376ZM325.882 419.295L327.75 344.952H333.053V419.295H325.882ZM327.795 342.99V341.199H334.83V342.99H327.795ZM334.875 339.237H327.825V336.41L324.632 331.066H334.906L334.875 339.237ZM307.76 367.318L306.344 368.739V345.956L307.76 344.504V367.318ZM308.784 373.188H325.882L325.189 400.868H321.935C321.66 398.699 320.645 396.7 319.071 395.225C317.497 393.749 315.465 392.892 313.334 392.805C311.947 392.827 310.587 393.196 309.372 393.88C308.156 394.563 307.122 395.541 306.359 396.728V375.644L308.784 373.188ZM315.111 404.899V396.311C316.296 396.811 317.304 397.672 317.999 398.776C318.693 399.88 319.042 401.176 318.998 402.49V404.93L315.111 404.899ZM318.998 408.174V422.508L317.039 425.443H315.126V408.143L318.998 408.174ZM310.893 404.899V404.374C310.893 400.204 312.279 398.196 313.213 397.315V404.93L310.893 404.899ZM313.213 408.174V425.427H310.893V408.128L313.213 408.174ZM319.088 427.126V428.548H300.86L299.083 427.126H319.088ZM318.591 430.525V436.008H317.085V430.478L318.591 430.525ZM315.247 430.525V436.008H313.831V430.478L315.247 430.525ZM311.933 430.525V436.008H310.501V430.478L311.933 430.525ZM308.588 430.525V436.008H307.157V430.478L308.588 430.525ZM303.271 430.525H305.229V436.008H303.301V430.556L303.271 430.525ZM302.713 437.707H333.053V439.514H300.966L302.713 437.707ZM312.761 442.805L310.396 454.08H310.306C309.63 454.076 308.955 454.128 308.287 454.235L305.877 442.805H312.761ZM339.756 500.975H345.782V485.251H339.756V483.243H345.782V477.806H339.756L342.89 474.593H347.56V515.788H339.771L339.756 500.975ZM374.766 449.493H362.714L355.664 456.289C354.299 455.336 352.763 454.669 351.145 454.327L353.555 442.789H384.121L386.501 454.173C384.348 454.423 382.284 455.19 380.475 456.413L374.766 449.493ZM397.362 368.863V346.775H393.867L396.021 344.581H400.842L400.164 371.242H381.56L383.895 368.878L397.362 368.863ZM384.407 365.588V350.049H394.168V365.604L384.407 365.588ZM393.897 424.871L394.138 424.516L397.151 423.512H407.305V424.871H393.897ZM407.244 428.069V435.946H394.952V428.069H407.244ZM396.247 421.504V404.05H399.26L398.869 419.311H397.061V421.319L396.247 421.504ZM398.507 422.076V420.732H407.244V422.076H398.507ZM400.013 419.295L401.911 344.952H407.214V419.295H400.013ZM381.936 367.318L380.52 368.739V345.987L381.936 344.535V367.318ZM382.961 373.188H400.044L399.336 400.868H396.172C395.896 398.699 394.882 396.7 393.308 395.225C391.734 393.749 389.701 392.892 387.57 392.805C386.181 392.824 384.818 393.192 383.6 393.876C382.382 394.56 381.345 395.539 380.58 396.728V375.69L382.961 373.188ZM389.258 404.899V396.311C390.443 396.811 391.45 397.672 392.145 398.776C392.84 399.88 393.188 401.176 393.144 402.49V404.93L389.258 404.899ZM393.144 408.174V422.493L391.186 425.427H389.318V408.174H393.144ZM385.04 404.899V404.374C385.04 400.204 386.425 398.196 387.344 397.331V404.946L385.04 404.899ZM387.344 408.174V425.427H385.085V408.174H387.344ZM393.219 427.126V428.548H374.992L373.214 427.126H393.219ZM392.722 430.525V436.008H391.291V430.509L392.722 430.525ZM389.378 430.525V436.008H387.872V430.509L389.378 430.525ZM386.034 430.525V436.008H384.618V430.509L386.034 430.525ZM382.72 430.525V436.008H381.289V430.509L382.72 430.525ZM377.402 430.525H379.36V436.008H377.432V430.556L377.402 430.525ZM385.311 442.789H392.27L389.86 454.25C389.228 454.134 388.589 454.072 387.947 454.065H387.646L385.311 442.789ZM375.157 439.499L376.92 437.692H407.274V439.499H375.157ZM402.017 343.006V341.214H409.037V343.006H402.017ZM402.017 339.252V336.41L398.823 331.066H409.097V339.206L402.017 339.252ZM286.203 368.848V346.759H282.708L284.847 344.566H289.668L288.975 371.226H270.385L272.645 368.848H286.203ZM273.248 365.573V350.034H283.009V365.588L273.248 365.573ZM282.738 424.856L282.979 424.501L285.992 423.497H296.13V424.856H282.738ZM296.085 428.053V435.931H283.793V428.053H296.085ZM285.088 421.628V404.019H288.101L287.709 419.28H285.902V421.365L285.088 421.628ZM287.348 422.045V420.701H296.085V422.045H287.348ZM288.854 419.264L290.722 344.968H296.025V419.311L288.854 419.264ZM270.777 367.318L269.376 368.739V345.987L270.777 344.551V367.318ZM271.801 373.188H288.869L288.146 400.868H284.952C284.677 398.699 283.662 396.7 282.088 395.225C280.514 393.749 278.482 392.892 276.351 392.805C274.969 392.816 273.61 393.172 272.392 393.842C271.174 394.512 270.134 395.476 269.361 396.651V375.675L271.801 373.188ZM278.098 404.899V396.311C279.283 396.811 280.291 397.672 280.986 398.776C281.68 399.88 282.029 401.176 281.985 402.49V404.899H278.098ZM281.94 408.174V422.539L280.011 425.412H278.098V408.158L281.94 408.174ZM273.88 404.899V404.374C273.88 400.204 275.266 398.196 276.185 397.315V404.93L273.88 404.899ZM276.185 408.174V425.427H273.85V408.158L276.185 408.174ZM282.06 427.126V428.548H263.787L262.01 427.126H282.06ZM281.548 430.525V436.039H280.192V430.478L281.548 430.525ZM278.204 430.525V436.039H276.788V430.478L278.204 430.525ZM274.89 430.525V436.039H273.383V430.478L274.89 430.525ZM271.545 430.525V436.039H270.129V430.478L271.545 430.525ZM266.228 430.525H268.186V436.039H266.258V430.556L266.228 430.525ZM265.67 437.707H296.1V439.514H263.938L265.67 437.707ZM290.722 342.975V341.183H297.757V342.975H290.722ZM290.722 339.222V336.41L287.528 331.066H297.802V339.206L290.722 339.222ZM250.35 331.081H260.804V339.222H253.769V336.41L250.35 331.081ZM258.982 435.962H246.704V428.084H258.997L258.982 435.962ZM258.982 424.871H245.65L245.891 424.516L248.904 423.497H259.057L258.982 424.871ZM258.982 422.06H250.244V420.716H258.982V422.06ZM258.982 419.28H251.826L253.694 344.937H258.997L258.982 419.28ZM253.709 342.975V341.183H260.729V342.975H253.709ZM245.529 442.743H304.702L307.157 454.436C305.02 455.012 303.034 456.067 301.342 457.525L295.859 449.493H278.083L273.865 460.83C272.612 459.706 271.01 459.077 269.346 459.054H269.24C267.664 459.119 266.14 459.656 264.857 460.599L260.759 449.539H245.529V442.743ZM270.581 489.854V491.012H266.167V474.578L270.385 467.58L270.581 489.854ZM260.111 467.38V472.631H245.529V461.819H257.792L261.166 464.754C260.722 465.594 260.363 466.479 260.096 467.395L260.111 467.38ZM258.183 460.738H245.529V450.543H259.991L263.938 461.201C263.081 461.957 262.335 462.836 261.723 463.811L258.183 460.738ZM276.26 503.601C271.301 500.788 266.498 497.694 261.874 494.333H276.26V503.601ZM276.26 491.028H273.443V467.704H276.26V491.028ZM277.496 466.314L283.19 461.834H291.385L296.356 465.696V472.57H277.917V467.395L277.466 466.314H277.496ZM277.948 484.232V473.759H296.356V484.232H277.948ZM296.356 485.375V495.847H277.917V485.375H296.356ZM277.933 504.528V497.052H296.341V506.938H282.331C280.825 506.155 279.354 505.362 277.917 504.559L277.933 504.528ZM296.386 513.209L284.591 508.019H296.386V513.209ZM296.507 463.317L296.356 463.626V464.337L291.837 460.753H282.889L277.164 465.263C276.585 463.934 275.802 462.709 274.844 461.634L278.942 450.589H295.241L300.454 458.313C298.898 459.776 297.563 461.468 296.492 463.333L296.507 463.317ZM301.026 514.908V501.006H307.052V485.251H301.026V483.243H307.052V477.806H301.026L304.159 474.593H308.829V515.788H303.647L301.026 514.908ZM350.181 523.326C335.606 523.334 321.106 521.191 307.127 516.962H393.159C379.2 521.187 364.72 523.33 350.166 523.326H350.181ZM398.386 507.416V515.294L396.88 515.819H389.348V500.929H395.298V485.251H389.348V483.243H395.298V477.806H389.348V474.593H398.386V507.416ZM398.386 471.689H379.104L381.891 468.832H398.341L398.386 471.689ZM400.872 514.429V508.096H415.786C410.923 510.477 405.939 512.591 400.857 514.429H400.872ZM419.371 506.242L418.106 506.922H400.842V497.052H419.341L419.371 506.242ZM419.371 495.893H400.842V485.421H419.371V495.893ZM419.371 484.278H400.842V473.805H419.371V484.278ZM419.371 467.441V472.693H400.842V466.515L406.612 462.004H414.791L419.913 466.02C419.707 466.489 419.526 466.968 419.371 467.457V467.441ZM415.183 460.799H406.235L400.842 465.016V463.688L400.691 463.379C399.759 461.637 398.61 460.027 397.272 458.591L402.695 450.605H419.115L423.092 461.309C421.987 462.319 421.073 463.528 420.395 464.877L415.183 460.799ZM435.52 496.403C430.838 499.666 425.985 502.662 420.983 505.378V494.333H435.52V496.403ZM425.427 491.074V474.624L429.826 467.673V491.043L425.427 491.074ZM435.52 491.074H432.688V467.704H435.52V491.074ZM453.251 472.693H437.177V467.472C436.944 466.752 436.673 466.046 436.363 465.356L440.22 461.958H453.296L453.251 472.693ZM453.251 460.799H439.693L435.716 464.275C435.206 463.298 434.573 462.394 433.833 461.587L437.9 450.62H453.16L453.251 460.799ZM453.251 449.477H437.207L433.034 460.753C431.775 459.648 430.172 459.04 428.515 459.039C426.892 459.079 425.318 459.617 423.996 460.583L419.868 449.462H402.198L396.549 457.757C394.982 456.246 393.087 455.139 391.02 454.528L393.476 442.789H453.326L453.251 449.477ZM468.465 443.299H466.176V420.593L468.481 417.38L468.465 443.299ZM474.491 443.299H469.972V417.349H474.491V443.299ZM469.821 403.756L475.395 408.39H463.645L469.821 403.756ZM462.44 412.035H476.254V415.634H462.455L462.44 412.035ZM460.843 410.753V417.272H462.455V443.283H459.171V410.692L460.843 410.753ZM498.248 404.467L498.85 401.81L497.344 400.621L483.635 410.692H488.305V417.21H490.956L491.529 415.573H489.917V411.974H496.199L497.253 408.267H491.077L497.298 403.633L498.248 404.467ZM297.531 248.83L296.326 249.509L294.609 250.483L293.283 251.286L291.626 252.367L290.451 253.093L289.969 252.259L290.481 251.888C291.505 251.162 291.837 250.714 290.843 248.922L286.203 240.643C285.148 238.821 284.696 238.975 283.521 239.67L283.009 239.979L282.527 239.114C283.983 238.075 285.231 236.759 286.203 235.237L286.805 234.882L293.735 247.131C294.744 248.922 295.241 248.83 296.447 248.274L297.004 247.996L297.531 248.83ZM322.914 225.691C322.463 223.22 324.044 220.748 327.223 220.177C330.718 219.528 332.646 221.32 332.947 223.05C333.013 223.848 332.858 224.649 332.501 225.362C332.144 226.075 331.599 226.671 330.929 227.081C331.9 227.331 332.786 227.848 333.49 228.578C334.194 229.308 334.689 230.222 334.921 231.221C335.047 231.957 335.023 232.712 334.851 233.438C334.678 234.164 334.362 234.846 333.92 235.441C333.479 236.035 332.923 236.53 332.286 236.894C331.649 237.257 330.946 237.482 330.221 237.554C326.937 238.172 324.195 236.843 323.788 234.233C323.707 233.272 323.92 232.309 324.398 231.479C324.876 230.648 325.595 229.991 326.455 229.599C325.58 229.324 324.792 228.818 324.168 228.132C323.544 227.446 323.107 226.605 322.899 225.691H322.914ZM329.995 226.742C330.287 226.315 330.492 225.833 330.598 225.323C330.704 224.814 330.709 224.287 330.612 223.776C330.575 223.378 330.456 222.993 330.261 222.646C330.067 222.3 329.802 222 329.486 221.767C329.169 221.534 328.807 221.374 328.424 221.297C328.042 221.22 327.647 221.228 327.268 221.32C326.959 221.338 326.657 221.422 326.381 221.566C326.105 221.71 325.861 221.91 325.664 222.156C325.468 222.401 325.323 222.685 325.238 222.99C325.154 223.296 325.132 223.616 325.174 223.93C325.475 225.722 327.81 226.247 329.241 226.556L329.995 226.742ZM327.524 229.954C327.087 230.461 326.764 231.059 326.576 231.708C326.389 232.356 326.342 233.039 326.44 233.708C326.477 234.142 326.604 234.563 326.812 234.943C327.02 235.324 327.304 235.655 327.646 235.914C327.987 236.174 328.378 236.357 328.794 236.45C329.209 236.544 329.639 236.546 330.055 236.457C330.443 236.43 330.823 236.323 331.17 236.143C331.517 235.962 331.825 235.711 332.076 235.405C332.326 235.1 332.514 234.745 332.627 234.363C332.741 233.981 332.778 233.58 332.736 233.183C332.345 230.943 329.724 230.402 328.036 230.093L327.524 229.954ZM372.868 237.77L371.512 237.508L369.584 237.121L368.077 236.859L366.119 236.581L364.763 236.38L364.914 235.422H365.516C366.767 235.53 367.324 235.422 367.625 233.383L369.132 223.961C369.478 221.876 369.026 221.691 367.625 221.459L367.023 221.351L367.173 220.362C368.967 220.544 370.779 220.366 372.506 219.837L373.199 219.961L370.894 233.955C370.563 235.994 371.045 236.272 372.25 236.581L372.853 236.735L372.868 237.77ZM411.432 241.261C411.966 241.6 412.43 242.044 412.795 242.568C413.161 243.092 413.421 243.685 413.561 244.313C413.701 244.941 413.718 245.591 413.611 246.226C413.505 246.861 413.276 247.468 412.939 248.011C412.593 248.719 412.113 249.349 411.526 249.863C410.939 250.378 410.257 250.766 409.521 251.005C408.784 251.244 408.009 251.329 407.24 251.255C406.471 251.182 405.725 250.95 405.045 250.575C402.936 249.339 401.023 246.204 404.141 240.597C407.907 233.801 412.456 234.573 414.686 235.87C416.916 237.168 417.096 238.867 416.644 239.732C416.555 239.898 416.434 240.044 416.289 240.162C416.145 240.279 415.979 240.367 415.801 240.418C415.623 240.47 415.437 240.485 415.253 240.463C415.07 240.44 414.892 240.381 414.731 240.288C414.421 240.073 414.185 239.763 414.055 239.403C413.926 239.043 413.909 238.65 414.008 238.28C414.008 237.554 414.008 236.843 413.36 236.426C412.713 236.009 410.98 235.654 408.344 240.674C409.413 240.489 410.512 240.697 411.447 241.261H411.432ZM405.949 244.752C404.894 246.605 403.93 248.768 405.467 249.633C407.003 250.498 408.48 248.629 409.353 246.961C410.227 245.293 411.658 243.022 409.881 241.987C409.506 241.794 409.09 241.702 408.671 241.718C408.253 241.734 407.845 241.858 407.485 242.08L405.934 244.767L405.949 244.752Z" fill="black"/>
</svg>
