<svg width="700" height="700" viewBox="0 0 865 864" fill="none" xmlns="http://www.w3.org/2000/svg">
  <path d="M254.667 1.00232C185.466 6.73565 131.733 42.7356 101.066 103.802C87.5998 130.602 81.9998 155.269 79.1998 200.736C78.2665 216.869 77.5998 221.669 75.9998 222.469C69.0665 226.336 46.6665 244.469 39.7332 251.669C20.6665 271.802 7.73315 298.069 2.26648 327.669C0.666484 337.002 -0.000183105 347.536 -0.000183105 368.869C-0.000183105 408.736 3.19982 428.869 17.1998 475.536C25.7332 504.469 30.7998 524.869 34.7998 547.402C37.8665 564.469 38.2665 571.136 38.6665 601.802C38.9332 632.469 39.3332 637.936 41.8665 647.136C45.1998 659.402 51.0665 671.402 59.9998 684.202C72.7998 702.736 83.8665 711.002 93.5998 709.402C95.5998 709.002 102.933 708.602 109.866 708.469C120.933 708.069 123.2 707.669 128 704.602C135.733 699.669 139.466 693.136 140.266 682.869C140.933 673.536 138 665.402 129.866 653.669C121.866 641.936 117.866 631.536 117.866 622.602C117.866 618.069 118.533 612.736 119.333 610.602C121.066 605.802 131.733 589.669 132.133 591.136C132.266 591.669 133.6 597.802 135.066 604.602C140 627.402 150.133 640.469 170.8 651.136C191.2 661.669 206.4 664.069 217.6 658.336C222.4 655.936 228.133 649.269 230 643.936C230.266 643.002 234.4 645.002 240.533 649.136C267.866 667.269 305.067 682.602 355.867 696.602C361.467 698.202 361.733 698.469 382.533 714.069C411.6 735.936 448.4 758.202 491.867 780.202C539.6 804.336 582.133 821.669 612.533 829.269C627.067 832.869 631.6 833.402 647.867 833.402C664.267 833.536 667.467 833.136 674.533 830.469C678.933 828.869 684.4 825.802 686.667 823.802C691.733 819.402 697.867 810.602 697.867 807.669C697.867 806.469 699.733 801.936 701.867 797.536C704.8 791.802 705.867 787.669 705.867 782.469C705.867 768.069 699.2 760.469 681.6 755.002C663.333 749.136 646 742.202 630.533 734.602C616 727.402 596.533 715.669 596.533 714.069C596.533 713.536 603.467 716.069 612 719.669C633.733 728.869 650.933 734.736 673.6 740.469C691.6 745.002 694.8 745.402 711.867 745.536C730 745.536 730.8 745.402 738.533 741.536C747.733 737.002 758.933 726.469 762.267 719.269C764 715.669 764.533 710.869 764.533 700.469C764.533 676.602 761.867 673.402 736.4 666.736C710 659.936 695.066 654.736 677.2 646.202C650.8 633.802 623.867 617.536 598.133 598.469C588.8 591.669 589.033 591.402 590.533 588.869C590.907 588.238 591.886 586.266 592.533 585.402C593.033 584.736 593.033 584.736 593.033 584.736C593.033 584.736 609.6 561.136 614 543.536C617.6 529.269 617.067 509.402 612.4 486.869C611.6 483.136 610.667 478.736 610.4 476.869C610 475.136 607.733 466.469 605.2 457.536C598.533 434.069 597.867 427.669 597.867 390.202C597.867 345.936 595.2 334.202 583.867 326.336C580 323.669 578 323.269 571.333 323.802C558.8 324.736 546.133 331.802 530.667 346.336L517.733 358.602L490.8 358.869C463.333 359.136 454.666 360.202 431.333 366.202C425.2 367.669 416.4 370.469 411.6 372.336L402.8 375.536L386.933 364.736C368 351.936 354.267 345.269 344.133 344.069C333.867 342.869 328.267 345.136 322.267 352.602C319.6 356.069 316.933 359.402 316.4 359.936C314.933 361.802 307.333 347.402 278.533 288.202C272.133 275.002 264.4 260.602 261.466 256.202C235.333 218.069 202.133 199.536 159.466 199.402H145.6L146 187.269C146.8 164.469 152.4 142.869 162 126.736C169.2 114.336 185.866 98.469 200.533 89.8023C220.8 77.9356 226.933 76.2023 249.867 76.3356C267.067 76.3356 270.533 76.869 281.2 80.069C310.133 88.869 331.733 106.336 344.267 130.869C345.733 133.936 349.066 142.469 351.733 150.069C361.2 177.269 368.8 189.002 381.733 196.602C387.067 199.802 389.333 200.202 399.2 200.202C416.266 200.202 426.933 194.869 435.2 182.469C446.266 165.802 446.667 142.602 436.4 113.136C415.867 53.9356 374.133 15.9356 317.2 4.33563C295.6 -0.0643682 278.4 -0.997681 254.667 1.00232ZM303.733 14.3356C319.866 16.469 335.733 21.5356 351.867 29.5356C379.067 43.1356 396.8 60.2023 409.6 84.7357C435.067 133.536 436.667 171.936 413.6 183.669C409.2 185.936 406.4 186.336 399.733 185.936C384.533 185.002 376.8 177.002 367.733 153.002C361.333 135.936 353.6 119.536 348.267 111.802C341.867 102.469 330.133 90.6023 321.6 84.7357C272.533 51.269 213.2 56.0689 171.066 97.1356C155.333 112.469 145.733 129.269 139.6 152.336C136.666 163.669 136.133 168.469 136 186.469C135.866 203.802 136.266 207.802 137.866 209.536C139.6 211.136 144 211.669 157.866 212.069C186 212.869 202.4 218.869 224.133 236.202C244.266 252.336 254.8 267.802 278.667 316.869C287.2 334.069 297.6 354.469 301.866 362.202L309.733 376.336L308.933 394.202C308.266 412.336 310.533 433.269 314 439.802C316.933 445.402 318.133 457.669 319.2 495.536C320.4 540.869 321.733 549.269 331.867 569.536C338.133 582.069 351.333 599.002 354.667 598.736C355.6 598.602 356.133 599.002 355.867 599.669C354.667 601.402 368.133 611.269 379.466 617.002C393.333 623.936 409.733 628.602 427.6 630.469C444.667 632.202 458.533 630.869 458.533 627.536C458.533 626.202 456.933 625.402 453.867 625.136C451.333 625.002 443.733 623.936 436.933 622.869C390.266 615.269 360 595.669 343.733 562.869C332.8 540.736 329.2 517.802 330.667 479.536C331.467 457.802 331.466 457.402 327.2 441.536C320.4 415.936 320.133 389.802 326.8 370.469C330.4 359.802 336.666 356.736 348.933 359.536C358.133 361.669 375.467 370.736 384.4 378.069C398.267 389.269 400.267 389.536 418 382.736C424.933 380.069 436.133 376.469 443.066 374.736C450.033 372.402 454.291 371.196 457 371C459.8 370.798 470.133 369.269 490.667 370.069C511.867 370.736 523.6 370.736 525.466 369.802C528.533 368.469 532.384 362.052 533.533 360.902C534.033 360.402 534.533 359.902 534.533 359.902C534.533 359.902 537.867 357.002 541.867 353.136C556.133 339.002 570.933 331.802 577.733 335.536C585.333 339.536 587.333 352.869 586.933 397.536C586.533 435.136 586.666 436.336 595.2 467.402C602 492.336 603.6 503.536 602.933 524.202C602.4 538.869 601.6 544.736 599.333 551.536C590.667 576.469 570.8 596.602 541.6 610.069C529.733 615.536 527.333 617.536 529.6 619.802C533.067 623.269 556.933 614.869 571.867 604.736C576.133 601.802 578.8 600.869 579.867 601.669C592.533 610.736 631.067 635.802 641.867 641.936C671.467 658.869 701.867 671.002 728.533 676.869C744.4 680.202 752 683.002 753.067 685.802C754.267 688.736 751.6 690.202 745.067 690.202C738.4 690.202 734.933 693.269 739.067 695.402C740.533 696.202 743.067 696.869 744.8 696.869C750.267 696.869 753.867 700.469 753.867 706.069C753.867 714.469 748.533 716.602 740.267 711.536C734.8 708.202 729.067 708.069 728 711.136C727.067 713.536 728 714.469 735.067 718.469C740 721.269 740.133 722.602 736 726.869C729.333 733.536 715.467 734.469 691.067 730.069C640.267 721.002 595.733 703.536 547.6 673.936C532.8 664.736 528.533 663.536 528.533 668.469C528.533 673.536 537.2 683.402 555.867 699.402C577.867 718.469 598.4 731.802 628.133 746.602C648.533 756.736 655.733 759.669 675.2 765.402C689.066 769.536 694.533 774.202 694.267 781.669C694 788.869 692 789.936 687.867 785.002C684.133 780.602 676.533 779.002 676.533 782.736C676.533 785.136 679.867 787.802 681.067 786.469C681.6 785.936 681.867 786.202 681.733 786.869C681.467 787.669 682.4 790.069 683.6 792.469C686.4 797.802 686.4 800.736 683.733 807.536C680.667 815.136 673.867 818.202 673.867 811.936C673.867 804.869 663.2 796.736 656.533 798.869C652.8 800.069 653.2 802.336 658 806.336C663.467 810.736 663.6 816.202 658.667 820.469C654.4 824.069 652.933 824.202 637.2 821.402C603.333 815.669 558.8 798.069 489.2 763.269C430.533 733.936 389.466 707.136 363.466 681.269C357.466 675.136 352.267 670.202 352 670.202C351.6 670.202 352 672.069 352.667 674.469C354.667 681.536 352.133 682.736 341.733 680.336C315.466 674.202 277.6 657.669 252.533 641.136C224 622.469 193.2 594.202 174.4 569.536C146.133 532.336 130.266 494.602 122.533 445.802C122 442.069 121.066 440.869 119.2 440.869C115.733 440.869 114.666 447.536 115.733 461.269C117.6 481.936 122.533 500.736 132.8 524.602C137.6 535.936 138.133 538.202 137.466 545.002C136.666 553.669 129.333 570.469 118.133 588.602C109.333 603.002 106.666 611.136 106.533 622.869C106.533 635.269 110.133 645.536 118 656.602C126.4 668.069 130.133 676.069 129.6 680.602L129.066 684.202L127.6 680.736C126.8 678.736 125.2 676.869 124 676.469C122.266 675.802 122.133 676.869 122.8 684.069C123.466 691.536 123.2 692.869 120.666 695.402C118.533 697.536 116.4 698.202 113.466 697.936C109.733 697.536 109.066 697.002 108.133 692.202C106.533 684.736 104.133 680.336 101.466 679.802C99.3332 679.402 99.1998 680.069 99.9998 686.069C101.6 698.202 94.9332 703.002 85.0665 697.002C76.7998 691.936 58.1332 659.402 53.8665 642.869C52.7998 638.736 51.9998 625.002 51.7332 606.869C51.3332 573.136 48.3998 548.336 41.1998 520.202C38.6665 510.602 33.3332 489.669 29.1998 473.536C11.8665 405.936 8.53315 359.269 18.3998 320.736C27.1998 285.936 46.3998 257.802 75.5998 237.269C81.1998 233.269 86.7998 228.202 87.8665 226.202C89.1998 223.536 89.8665 218.202 89.8665 209.269C89.8665 183.802 93.5998 156.336 99.4665 138.869C104 125.402 117.6 98.2023 126.666 84.469C136.666 69.4023 152 53.4023 164.8 44.3356C183.466 31.1356 210.8 19.5356 232.533 15.5356C250.533 12.069 283.2 11.5356 303.733 14.3356ZM154 562.469C164.8 579.269 192.6 607.536 195.033 609.402L195.533 609.902C195.533 609.902 200.533 616.202 207.333 622.469C218.8 633.002 219.333 633.802 218.666 637.936C217.066 648.069 210.533 649.002 207.066 639.536C204.8 633.269 200 628.869 197.867 631.002C197.067 631.802 197.6 634.202 199.2 637.269C203.333 644.869 202.133 650.202 196.266 650.202C190.933 650.202 162.133 633.269 156.266 626.602C149.733 619.402 141.066 587.802 142.266 575.536C142.8 569.402 147.6 555.536 149.066 555.536C149.333 555.536 151.6 558.736 154 562.469Z" fill="black"/>
  <path d="M555.067 361.867C549.867 365.733 542.667 377.333 542.667 382.133C542.667 385.067 546 387.733 548.933 387.067C552.667 386.4 564 361.467 561.6 359.067C560.933 358.4 558.133 359.6 555.067 361.867Z" fill="black"/>
  <path d="M352 379.6C352 382.8 361.2 397.2 366.533 402.266C370.133 405.733 372.533 406.933 374.4 406.4C380.267 404.933 379.067 398.8 371.2 390.133C363.867 382 352 375.466 352 379.6Z" fill="black"/>
  <path d="M545.333 460.933C534 462.933 522.667 473.866 522.667 482.933C522.667 489.866 525.6 489.733 537.067 482.266C549.333 474.133 555.733 471.333 561.733 471.333C566.933 471.333 568.133 470.533 567.067 467.866C565.333 463.2 553.6 459.466 545.333 460.933Z" fill="black"/>
  <path d="M408.933 481.333C406.133 482.4 402.133 484.533 399.867 486C395.733 489.067 391.333 496.133 393.067 497.067C393.6 497.467 398.267 496.8 403.333 495.733C414.533 493.333 425.733 494.133 437.467 498C447.333 501.333 452 500.267 452 494.8C452 490.533 447.867 486.533 439.333 482.533C431.6 478.8 417.333 478.267 408.933 481.333Z" fill="black"/>
  <path d="M490 509.333C487.867 510.267 484.533 512.667 482.667 514.667L479.333 518.267L484.933 523.333C492.933 530.267 493.867 533.733 490.267 540.933C486 549.2 476.133 554.267 464.267 554.267C454.933 554.267 453.867 553.6 446.533 543.2C444.933 540.8 444.133 540.533 441.733 541.733C437.867 543.867 437.067 549.733 439.733 555.333C441.333 558.533 444.133 561.067 449.333 563.733C456 567.2 457.6 567.6 466.133 566.933C478.267 566 487.067 561.733 494.8 552.8L500.667 546L509.867 550.667C526.667 559.2 544.133 555.067 550 541.067C553.733 532.133 551.067 520.8 545.067 520.667C542.533 520.667 539.867 525.333 540.667 528.4C541.867 533.067 538.933 539.067 534.533 541.333C525.333 546.133 508.267 541.867 504.267 533.733C502.4 529.733 503.333 526.933 508.8 519.467C510.533 516.933 511.867 513.867 511.733 512.8C510.8 507.733 498 505.733 490 509.333Z" fill="black"/>
</svg>



